<svg width="338" height="255" viewBox="0 0 338 255" fill="none" xmlns="http://www.w3.org/2000/svg">
<path d="M172.293 117.368L123.188 47.8125C137.731 37.9654 154.613 32.6149 172.236 32.3303V117.368H172.293Z" fill="#FCD34F" fill-opacity="0.3"/>
<path d="M120.565 49.6339L171.038 121.239L84.2358 133.647C83.7796 129.948 83.5514 126.191 83.5514 122.491C83.4944 93.7466 97.3531 66.6529 120.565 49.6339Z" fill="#FCD34F" fill-opacity="0.5"/>
<path d="M114.405 190.396C98.4936 176.508 87.9997 157.554 84.6919 136.892L173.319 124.256L235.198 188.802C218.431 204.228 196.759 212.709 173.889 212.709C151.989 212.652 130.831 204.74 114.405 190.396Z" fill="#FCD34F" fill-opacity="0.7"/>
<path d="M237.537 186.526L175.487 121.808V32.3303C224.591 33.1841 264.228 73.3125 264.228 122.491C264.228 146.796 254.761 169.45 237.537 186.526Z" fill="#FCD34F"/>
<path d="M135.963 53.3329H138.815C138.815 53.8452 138.815 54.1867 138.815 54.3575C138.815 54.5282 138.872 54.5851 138.986 54.699C139.1 54.8128 139.214 54.8128 139.385 54.8128C139.556 54.8128 139.67 54.7559 139.727 54.699C139.842 54.5851 139.899 54.4713 139.899 54.3575C139.899 54.2436 139.899 53.959 139.899 53.5037V51.6822C139.785 51.9668 139.556 52.1945 139.271 52.3653C138.986 52.536 138.644 52.5929 138.245 52.5929C137.731 52.5929 137.275 52.4791 136.876 52.1945C136.477 51.9099 136.249 51.5684 136.134 51.17C136.02 50.7715 135.963 50.2592 135.963 49.5762V48.6655C135.963 47.8686 136.02 47.2425 136.077 46.901C136.134 46.5025 136.306 46.161 136.591 45.8195C136.876 45.478 137.218 45.2503 137.674 45.0226C138.131 44.8519 138.701 44.738 139.328 44.738C140.07 44.738 140.697 44.8519 141.21 45.0796C141.724 45.3072 142.066 45.5918 142.351 45.9903C142.636 46.3887 142.75 46.7871 142.807 47.2425C142.864 47.6979 142.864 48.5517 142.864 49.8039V51.3976C142.864 52.7637 142.864 53.6744 142.807 54.1298C142.75 54.5851 142.579 55.0405 142.294 55.4389C142.009 55.8374 141.61 56.1789 141.096 56.3496C140.583 56.5204 140.013 56.6342 139.385 56.6342C138.587 56.6342 137.902 56.5204 137.389 56.2358C136.876 55.9512 136.534 55.6097 136.306 55.1543C136.077 54.6421 135.963 54.0159 135.963 53.3329ZM138.815 49.747C138.815 50.2023 138.872 50.5438 138.986 50.6577C139.1 50.7715 139.214 50.8284 139.385 50.8284C139.556 50.8284 139.727 50.7715 139.842 50.6008C139.956 50.43 139.956 50.2023 139.956 49.747V47.6979C139.956 47.1856 139.899 46.8441 139.842 46.7302C139.727 46.5595 139.613 46.5025 139.385 46.5025C139.271 46.5025 139.157 46.5595 138.986 46.6733C138.872 46.7871 138.815 47.1287 138.815 47.6409V49.747Z" fill="black"/>
<path d="M145.488 54.1306V55.1551C145.488 55.6674 145.431 56.1228 145.317 56.4643C145.203 56.8058 144.975 57.0904 144.632 57.3181C144.29 57.5458 143.948 57.7165 143.549 57.7734V56.9766C143.834 56.8058 144.005 56.5781 144.005 56.3505H143.549V54.1306H145.488Z" fill="black"/>
<path d="M151.248 44.9096V47.414L149.423 56.3504H146.571L148.624 46.9587H145.773V44.9096H151.248Z" fill="black"/>
<path d="M156.609 44.9096V56.3504H153.757V50.2031C153.757 49.2924 153.757 48.7801 153.7 48.6094C153.643 48.4386 153.529 48.2678 153.358 48.2109C153.187 48.154 152.731 48.0971 152.104 48.0971H151.818V46.7879C153.187 46.5033 154.271 45.8772 154.955 44.9665H156.609V44.9096Z" fill="black"/>
<path d="M161.685 46.8449V48.7801C161.685 49.2924 161.628 49.6908 161.513 49.9185C161.399 50.2031 161.228 50.3739 160.886 50.6016C160.544 50.8292 160.145 50.8862 159.631 50.8862C159.004 50.8862 158.548 50.7723 158.263 50.6016C157.92 50.4308 157.749 50.2031 157.635 49.9754C157.521 49.7478 157.464 49.3493 157.464 48.894V46.8449C157.464 46.2757 157.521 45.8772 157.635 45.5926C157.749 45.308 157.978 45.0804 158.32 44.9096C158.662 44.7388 159.061 44.6819 159.517 44.6819C160.031 44.6819 160.487 44.7958 160.829 44.9665C161.171 45.1373 161.399 45.365 161.513 45.6496C161.628 45.9341 161.685 46.3326 161.685 46.8449ZM159.917 46.3895C159.917 46.1049 159.917 45.8772 159.86 45.8203C159.803 45.7634 159.745 45.7065 159.631 45.7065C159.517 45.7065 159.403 45.7634 159.403 45.8203C159.346 45.8772 159.346 46.1049 159.346 46.3895V49.2924C159.346 49.6339 159.346 49.8047 159.403 49.8616C159.46 49.9185 159.517 49.9754 159.688 49.9754C159.803 49.9754 159.917 49.9185 159.917 49.8616C159.974 49.8047 159.974 49.6339 159.974 49.3493V46.3895H159.917ZM165.049 44.6819L160.544 56.5212H159.46L163.966 44.6819H165.049ZM166.989 52.3661V54.3583C166.989 54.8705 166.931 55.269 166.817 55.4966C166.703 55.7243 166.532 55.952 166.19 56.1797C165.848 56.3504 165.449 56.4643 164.935 56.4643C164.365 56.4643 163.852 56.3504 163.567 56.1797C163.224 56.0089 163.053 55.7812 162.939 55.4966C162.825 55.269 162.768 54.8705 162.768 54.4152V52.3661C162.768 51.7969 162.825 51.3984 162.939 51.1138C163.053 50.8292 163.281 50.6016 163.624 50.4308C163.966 50.26 164.365 50.1462 164.821 50.1462C165.392 50.1462 165.791 50.26 166.133 50.4308C166.475 50.6016 166.703 50.8292 166.817 51.1138C166.931 51.4554 166.989 51.8538 166.989 52.3661ZM165.221 51.9107C165.221 51.6261 165.221 51.3984 165.164 51.3415C165.106 51.2846 165.049 51.2277 164.935 51.2277C164.821 51.2277 164.707 51.2846 164.707 51.3415C164.65 51.3984 164.65 51.6261 164.65 51.9107V54.8136C164.65 55.1551 164.65 55.3259 164.707 55.3828C164.764 55.4397 164.821 55.4966 164.935 55.4966C165.049 55.4966 165.164 55.4397 165.164 55.3828C165.221 55.3259 165.221 55.1551 165.221 54.8705V51.9107Z" fill="black"/>
<path d="M212.785 102.91C213.242 103.081 213.527 103.308 213.755 103.65C213.983 103.991 214.097 104.788 214.097 105.984C214.097 106.894 213.983 107.577 213.812 108.09C213.641 108.602 213.242 109 212.728 109.228C212.215 109.513 211.588 109.627 210.789 109.627C209.877 109.627 209.192 109.456 208.679 109.171C208.166 108.887 207.824 108.488 207.652 108.033C207.481 107.577 207.424 106.837 207.424 105.756V104.845H210.276V106.724C210.276 107.236 210.333 107.521 210.39 107.691C210.447 107.805 210.561 107.919 210.789 107.919C211.017 107.919 211.131 107.862 211.245 107.691C211.302 107.521 211.36 107.065 211.36 106.382V105.585C211.36 105.13 211.302 104.845 211.188 104.618C211.074 104.39 210.96 104.276 210.732 104.219C210.561 104.162 210.162 104.105 209.592 104.105V102.398C210.276 102.398 210.675 102.398 210.846 102.341C211.017 102.284 211.131 102.17 211.188 101.999C211.245 101.829 211.302 101.544 211.302 101.202V100.576C211.302 100.178 211.245 99.8933 211.188 99.7794C211.131 99.6656 210.96 99.6087 210.789 99.6087C210.618 99.6087 210.447 99.6656 210.39 99.8364C210.333 99.9502 210.276 100.235 210.276 100.69V101.601H207.424V100.633C207.424 99.5518 207.652 98.8118 208.166 98.4134C208.679 98.0149 209.477 97.8442 210.561 97.8442C211.93 97.8442 212.842 98.1288 213.356 98.641C213.869 99.1533 214.097 99.8933 214.097 100.861C214.097 101.487 213.983 101.942 213.812 102.227C213.527 102.455 213.242 102.682 212.785 102.91Z" fill="black"/>
<path d="M220.028 97.9587V100.463L218.203 109.4H215.352L217.405 100.008H214.553V97.9587H220.028Z" fill="black"/>
<path d="M222.309 107.18V108.204C222.309 108.716 222.252 109.172 222.138 109.513C222.024 109.855 221.796 110.139 221.454 110.367C221.112 110.595 220.77 110.766 220.37 110.822V110.026C220.656 109.855 220.827 109.627 220.827 109.399H220.37V107.18H222.309Z" fill="black"/>
<path d="M228.526 102.911C228.925 103.081 229.268 103.309 229.496 103.651C229.724 103.992 229.838 104.789 229.838 106.041C229.838 106.952 229.724 107.635 229.553 108.09C229.382 108.546 229.039 108.887 228.526 109.172C228.013 109.456 227.328 109.57 226.416 109.57C225.56 109.57 224.876 109.456 224.42 109.172C223.907 108.887 223.564 108.546 223.336 108.09C223.108 107.635 222.994 106.895 222.994 105.871C222.994 105.187 223.051 104.561 223.165 104.049C223.279 103.537 223.621 103.138 224.192 102.854C223.849 102.683 223.564 102.398 223.393 102.057C223.222 101.715 223.108 101.203 223.108 100.634C223.108 99.6663 223.393 98.9263 223.907 98.414C224.42 97.9018 225.275 97.6741 226.359 97.6741C227.614 97.6741 228.469 97.9587 228.982 98.471C229.496 98.9832 229.724 99.7232 229.724 100.691C229.724 101.317 229.667 101.772 229.496 102C229.325 102.398 229.039 102.683 228.526 102.911ZM226.986 105.244C226.986 104.789 226.929 104.504 226.872 104.391C226.758 104.22 226.644 104.163 226.473 104.163C226.302 104.163 226.131 104.22 226.074 104.391C226.017 104.504 225.96 104.846 225.96 105.244V106.724C225.96 107.237 226.017 107.521 226.074 107.692C226.188 107.806 226.302 107.92 226.53 107.92C226.758 107.92 226.872 107.863 226.929 107.692C226.986 107.521 227.043 107.237 227.043 106.724V105.244H226.986ZM226.929 100.463C226.929 100.065 226.872 99.837 226.815 99.7232C226.758 99.6093 226.644 99.5524 226.416 99.5524C226.245 99.5524 226.074 99.6093 226.017 99.7801C225.96 99.8939 225.903 100.179 225.903 100.52V101.374C225.903 101.715 225.96 101.943 226.017 102.114C226.074 102.228 226.245 102.285 226.416 102.285C226.587 102.285 226.758 102.228 226.815 102.114C226.872 102 226.929 101.715 226.929 101.317V100.463Z" fill="black"/>
<path d="M237.651 101.032H234.8C234.8 100.52 234.8 100.179 234.8 100.008C234.8 99.8939 234.743 99.7801 234.628 99.6662C234.514 99.5524 234.4 99.5524 234.229 99.5524C234.058 99.5524 233.944 99.6093 233.887 99.6662C233.773 99.7801 233.716 99.8939 233.716 100.008C233.716 100.122 233.716 100.406 233.716 100.862V102.683C233.887 102.398 234.058 102.171 234.343 102C234.628 101.829 234.971 101.772 235.37 101.772C235.883 101.772 236.339 101.886 236.739 102.171C237.138 102.455 237.366 102.797 237.48 103.195C237.594 103.594 237.651 104.106 237.651 104.789V105.7C237.651 106.497 237.594 107.123 237.537 107.464C237.48 107.863 237.309 108.204 237.024 108.546C236.739 108.887 236.396 109.115 235.94 109.343C235.484 109.513 234.914 109.627 234.343 109.627C233.602 109.627 232.918 109.513 232.461 109.286C231.948 109.058 231.606 108.773 231.321 108.375C231.035 107.977 230.921 107.578 230.864 107.123C230.807 106.667 230.807 105.814 230.807 104.561V102.968C230.807 101.601 230.807 100.691 230.864 100.235C230.921 99.7801 231.093 99.3247 231.378 98.9263C231.663 98.5278 232.062 98.1863 232.575 98.0156C233.089 97.7879 233.659 97.731 234.286 97.731C235.085 97.731 235.769 97.8448 236.282 98.1294C236.796 98.414 237.138 98.7555 237.366 99.2109C237.594 99.7231 237.651 100.292 237.651 101.032ZM234.8 104.561C234.8 104.163 234.743 103.878 234.686 103.708C234.571 103.537 234.457 103.48 234.229 103.48C234.058 103.48 233.887 103.537 233.773 103.708C233.659 103.878 233.659 104.106 233.659 104.561V106.61C233.659 107.123 233.716 107.464 233.773 107.578C233.887 107.749 234.001 107.806 234.229 107.806C234.343 107.806 234.457 107.749 234.628 107.635C234.8 107.521 234.8 107.18 234.8 106.667V104.561Z" fill="black"/>
<path d="M242.613 99.9509V101.886C242.613 102.398 242.556 102.797 242.442 103.025C242.328 103.309 242.157 103.48 241.815 103.708C241.472 103.935 241.073 103.992 240.56 103.992C239.933 103.992 239.476 103.878 239.191 103.708C238.849 103.537 238.678 103.309 238.564 103.081C238.45 102.854 238.393 102.455 238.393 102V99.9509C238.393 99.3817 238.45 98.9832 238.564 98.6986C238.678 98.414 238.906 98.1863 239.248 98.0156C239.59 97.8448 239.99 97.7879 240.446 97.7879C240.959 97.7879 241.415 97.9017 241.758 98.0725C242.1 98.2433 242.328 98.4709 242.442 98.7555C242.556 99.0401 242.613 99.3817 242.613 99.9509ZM240.788 99.4386C240.788 99.154 240.788 98.9263 240.731 98.8694C240.674 98.8125 240.617 98.7555 240.503 98.7555C240.389 98.7555 240.275 98.8125 240.275 98.8694C240.218 98.9263 240.218 99.154 240.218 99.4386V102.341C240.218 102.683 240.218 102.854 240.275 102.911C240.332 102.968 240.389 103.025 240.56 103.025C240.674 103.025 240.788 102.968 240.788 102.911C240.845 102.854 240.845 102.683 240.845 102.398V99.4386H240.788ZM245.978 97.7879L241.472 109.627H240.389L244.894 97.7879H245.978ZM247.917 105.472V107.464C247.917 107.977 247.86 108.375 247.746 108.603C247.632 108.83 247.461 109.058 247.119 109.286C246.776 109.456 246.377 109.57 245.864 109.57C245.294 109.57 244.78 109.456 244.495 109.286C244.153 109.115 243.982 108.887 243.868 108.603C243.754 108.375 243.697 107.977 243.697 107.521V105.472C243.697 104.903 243.754 104.504 243.868 104.22C243.982 103.935 244.21 103.708 244.552 103.537C244.894 103.366 245.294 103.252 245.75 103.252C246.32 103.252 246.719 103.366 247.061 103.537C247.404 103.708 247.632 103.935 247.746 104.22C247.86 104.504 247.917 104.903 247.917 105.472ZM246.149 104.96C246.149 104.675 246.149 104.448 246.092 104.391C246.035 104.334 245.978 104.277 245.864 104.277C245.75 104.277 245.636 104.334 245.636 104.391C245.579 104.448 245.579 104.675 245.579 104.96V107.863C245.579 108.204 245.579 108.375 245.636 108.432C245.693 108.489 245.75 108.546 245.864 108.546C245.978 108.546 246.092 108.489 246.092 108.432C246.149 108.375 246.149 108.204 246.149 107.92V104.96Z" fill="black"/>
<path d="M147.883 161.936C148.339 162.106 148.624 162.334 148.853 162.676C149.081 163.017 149.195 163.814 149.195 165.009C149.195 165.92 149.081 166.603 148.91 167.115C148.739 167.628 148.339 168.026 147.826 168.254C147.313 168.538 146.685 168.652 145.887 168.652C144.974 168.652 144.29 168.481 143.777 168.197C143.264 167.912 142.921 167.514 142.75 167.058C142.579 166.603 142.522 165.863 142.522 164.782V163.871H145.374V165.749C145.374 166.262 145.431 166.546 145.488 166.717C145.545 166.831 145.659 166.945 145.887 166.945C146.115 166.945 146.229 166.888 146.343 166.717C146.4 166.546 146.457 166.091 146.457 165.408V164.611C146.457 164.156 146.4 163.871 146.286 163.643C146.172 163.416 146.058 163.302 145.83 163.245C145.659 163.188 145.26 163.131 144.689 163.131V161.48C145.374 161.48 145.773 161.48 145.944 161.423C146.115 161.367 146.229 161.253 146.286 161.082C146.343 160.911 146.4 160.627 146.4 160.285V159.659C146.4 159.26 146.343 158.976 146.286 158.862C146.229 158.748 146.058 158.691 145.887 158.691C145.716 158.691 145.545 158.748 145.488 158.919C145.431 159.033 145.374 159.317 145.374 159.773V160.683H142.522V159.716C142.522 158.634 142.75 157.894 143.264 157.496C143.777 157.098 144.575 156.927 145.659 156.927C147.028 156.927 147.94 157.211 148.453 157.724C148.967 158.236 149.195 158.976 149.195 159.944C149.195 160.57 149.081 161.025 148.91 161.31C148.624 161.48 148.339 161.708 147.883 161.936Z" fill="black"/>
<path d="M156.038 156.984V164.441H156.837V166.376H156.038V168.368H153.187V166.376H149.765V164.441L152.217 156.984H156.038ZM153.187 164.498V159.66L151.932 164.498H153.187Z" fill="black"/>
<path d="M159.118 166.205V167.23C159.118 167.742 159.061 168.197 158.947 168.539C158.833 168.881 158.605 169.165 158.263 169.393C157.92 169.62 157.578 169.791 157.179 169.848V169.051C157.464 168.881 157.635 168.653 157.635 168.425H157.179V166.205H159.118Z" fill="black"/>
<path d="M159.86 165.408H162.711C162.711 165.921 162.711 166.262 162.711 166.433C162.711 166.604 162.768 166.661 162.882 166.775C162.996 166.888 163.111 166.888 163.282 166.888C163.453 166.888 163.567 166.831 163.624 166.775C163.738 166.661 163.795 166.547 163.795 166.433C163.795 166.319 163.795 166.035 163.795 165.579V163.758C163.681 164.042 163.453 164.27 163.168 164.441C162.882 164.612 162.54 164.668 162.141 164.668C161.628 164.668 161.171 164.555 160.772 164.27C160.373 163.985 160.145 163.644 160.031 163.245C159.917 162.847 159.86 162.335 159.86 161.652V160.741C159.86 159.944 159.917 159.318 159.974 158.977C160.031 158.578 160.202 158.237 160.487 157.895C160.772 157.554 161.114 157.326 161.571 157.098C162.027 156.927 162.597 156.814 163.225 156.814C163.966 156.814 164.593 156.927 165.107 157.155C165.62 157.383 165.962 157.667 166.247 158.066C166.532 158.464 166.647 158.863 166.704 159.318C166.761 159.773 166.761 160.627 166.761 161.879V163.473C166.761 164.839 166.761 165.75 166.704 166.205C166.647 166.661 166.475 167.116 166.19 167.514C165.905 167.913 165.506 168.254 164.993 168.425C164.479 168.596 163.909 168.71 163.282 168.71C162.483 168.71 161.799 168.596 161.286 168.311C160.772 168.027 160.43 167.685 160.202 167.23C159.974 166.718 159.86 166.091 159.86 165.408ZM162.711 161.823C162.711 162.278 162.768 162.619 162.882 162.733C162.996 162.847 163.111 162.904 163.282 162.904C163.453 162.904 163.624 162.847 163.738 162.676C163.852 162.506 163.852 162.278 163.852 161.823V159.773C163.852 159.261 163.795 158.92 163.738 158.806C163.624 158.635 163.51 158.578 163.282 158.578C163.168 158.578 163.054 158.635 162.882 158.749C162.768 158.863 162.711 159.204 162.711 159.716V161.823Z" fill="black"/>
<path d="M173.947 156.984V158.806H170.411V160.741C170.867 160.229 171.437 159.944 172.122 159.944C172.92 159.944 173.49 160.172 173.89 160.627C174.289 161.083 174.517 161.936 174.517 163.189V164.839C174.517 165.636 174.46 166.262 174.403 166.604C174.346 167.002 174.175 167.344 173.89 167.628C173.661 167.97 173.262 168.198 172.806 168.368C172.35 168.539 171.779 168.653 171.152 168.653C170.411 168.653 169.783 168.539 169.213 168.254C168.643 167.97 168.243 167.628 168.015 167.116C167.787 166.604 167.673 165.807 167.673 164.782V164.156H170.525V164.896C170.525 165.636 170.525 166.148 170.582 166.49C170.639 166.775 170.81 166.945 171.095 166.945C171.209 166.945 171.323 166.888 171.437 166.831C171.551 166.718 171.551 166.661 171.551 166.547C171.551 166.433 171.551 165.978 171.551 165.181V162.904C171.551 162.449 171.494 162.164 171.437 162.05C171.323 161.879 171.209 161.822 170.981 161.822C170.867 161.822 170.753 161.879 170.639 161.936C170.525 161.993 170.468 162.107 170.468 162.221C170.468 162.335 170.411 162.506 170.411 162.847H167.559L167.673 157.098H173.947V156.984Z" fill="black"/>
<path d="M179.422 158.977V160.912C179.422 161.424 179.365 161.823 179.251 162.05C179.137 162.335 178.966 162.506 178.623 162.733C178.281 162.961 177.882 163.018 177.369 163.018C176.741 163.018 176.285 162.904 176 162.733C175.658 162.562 175.487 162.335 175.373 162.107C175.258 161.879 175.201 161.481 175.201 161.026V158.977C175.201 158.407 175.258 158.009 175.373 157.724C175.487 157.44 175.715 157.212 176.057 157.041C176.399 156.87 176.798 156.814 177.255 156.814C177.768 156.814 178.224 156.927 178.566 157.098C178.908 157.269 179.137 157.497 179.251 157.781C179.365 158.066 179.422 158.407 179.422 158.977ZM177.654 158.464C177.654 158.18 177.654 157.952 177.597 157.895C177.54 157.838 177.483 157.781 177.369 157.781C177.255 157.781 177.14 157.838 177.14 157.895C177.083 157.952 177.083 158.18 177.083 158.464V161.367C177.083 161.709 177.083 161.879 177.14 161.936C177.198 161.993 177.255 162.05 177.426 162.05C177.54 162.05 177.654 161.993 177.654 161.936C177.711 161.879 177.711 161.709 177.711 161.424V158.464H177.654ZM182.787 156.757L178.281 168.596H177.198L181.703 156.757H182.787ZM184.783 164.498V166.49C184.783 167.002 184.726 167.401 184.612 167.628C184.498 167.856 184.326 168.084 183.984 168.311C183.642 168.482 183.243 168.596 182.73 168.596C182.159 168.596 181.646 168.482 181.361 168.311C181.019 168.141 180.848 167.913 180.733 167.628C180.619 167.401 180.562 167.002 180.562 166.547V164.498C180.562 163.929 180.619 163.53 180.733 163.246C180.848 162.961 181.076 162.733 181.418 162.562C181.76 162.392 182.159 162.278 182.616 162.278C183.186 162.278 183.585 162.392 183.927 162.562C184.269 162.733 184.498 162.961 184.612 163.246C184.726 163.53 184.783 163.929 184.783 164.498ZM182.958 163.985C182.958 163.701 182.958 163.473 182.901 163.416C182.844 163.359 182.787 163.302 182.673 163.302C182.558 163.302 182.444 163.359 182.444 163.416C182.387 163.473 182.387 163.701 182.387 163.985V166.888C182.387 167.23 182.387 167.401 182.444 167.458C182.501 167.514 182.558 167.571 182.673 167.571C182.787 167.571 182.901 167.514 182.901 167.458C182.958 167.401 182.958 167.23 182.958 166.945V163.985Z" fill="black"/>
<path d="M105.166 94.9989V106.44H102.315V100.292C102.315 99.3817 102.315 98.8694 102.258 98.6987C102.201 98.5279 102.087 98.3572 101.915 98.3002C101.744 98.2433 101.288 98.1864 100.661 98.1864H100.376V96.8773C101.744 96.5927 102.828 95.9665 103.512 95.0558H105.166V94.9989Z" fill="black"/>
<path d="M111.269 94.9989V97.5034L109.444 106.44H106.592L108.645 97.048H105.794V94.9989H111.269Z" fill="black"/>
<path d="M113.607 104.22V105.244C113.607 105.757 113.55 106.212 113.436 106.554C113.322 106.895 113.094 107.18 112.752 107.407C112.409 107.635 112.067 107.806 111.668 107.863V107.066C111.953 106.895 112.124 106.667 112.124 106.44H111.668V104.22H113.607Z" fill="black"/>
<path d="M120.165 94.9989V102.455H120.964V104.391H120.165V106.383H117.314V104.391H113.892V102.455L116.344 94.9989H120.165ZM117.314 102.512V97.6741L116.059 102.512H117.314Z" fill="black"/>
<path d="M127.066 99.9509C127.466 100.122 127.808 100.349 128.036 100.691C128.264 101.032 128.378 101.829 128.378 103.081C128.378 103.992 128.264 104.675 128.093 105.131C127.922 105.586 127.58 105.927 127.066 106.212C126.553 106.497 125.869 106.61 124.956 106.61C124.101 106.61 123.416 106.497 122.96 106.212C122.447 105.927 122.105 105.586 121.876 105.131C121.648 104.675 121.534 103.935 121.534 102.911C121.534 102.228 121.591 101.602 121.705 101.089C121.819 100.577 122.162 100.179 122.732 99.894C122.39 99.7232 122.105 99.4386 121.934 99.0971C121.762 98.7556 121.648 98.2433 121.648 97.6741C121.648 96.7065 121.934 95.9665 122.447 95.4543C122.96 94.942 123.816 94.7143 124.899 94.7143C126.154 94.7143 127.009 94.9989 127.523 95.5112C128.036 96.0234 128.264 96.7634 128.264 97.731C128.264 98.3572 128.207 98.8125 128.036 99.0402C127.865 99.4386 127.523 99.6663 127.066 99.9509ZM125.527 102.285C125.527 101.829 125.469 101.545 125.412 101.431C125.298 101.26 125.184 101.203 125.013 101.203C124.842 101.203 124.671 101.26 124.614 101.431C124.557 101.545 124.5 101.886 124.5 102.285V103.765C124.5 104.277 124.557 104.561 124.614 104.732C124.728 104.846 124.842 104.96 125.07 104.96C125.298 104.96 125.412 104.903 125.469 104.732C125.527 104.561 125.584 104.277 125.584 103.765V102.285H125.527ZM125.469 97.5034C125.469 97.1049 125.412 96.8772 125.355 96.7634C125.298 96.6496 125.184 96.5926 124.956 96.5926C124.785 96.5926 124.614 96.6496 124.557 96.8203C124.5 96.9342 124.443 97.2188 124.443 97.5603V98.4141C124.443 98.7556 124.5 98.9833 124.557 99.154C124.614 99.2679 124.785 99.3248 124.956 99.3248C125.127 99.3248 125.298 99.2679 125.355 99.154C125.412 99.0402 125.469 98.7556 125.469 98.3571V97.5034Z" fill="black"/>
<path d="M133.283 96.9911V98.9264C133.283 99.4386 133.226 99.8371 133.112 100.065C132.998 100.349 132.827 100.52 132.485 100.748C132.142 100.975 131.743 101.032 131.23 101.032C130.602 101.032 130.146 100.919 129.861 100.748C129.519 100.577 129.348 100.349 129.234 100.122C129.12 99.894 129.063 99.4956 129.063 99.0402V96.9911C129.063 96.4219 129.12 96.0235 129.234 95.7389C129.348 95.4543 129.576 95.2266 129.918 95.0558C130.26 94.8851 130.66 94.8282 131.116 94.8282C131.629 94.8282 132.085 94.942 132.427 95.1128C132.77 95.2835 132.998 95.5112 133.112 95.7958C133.226 96.0804 133.283 96.4219 133.283 96.9911ZM131.515 96.4788C131.515 96.1942 131.515 95.9666 131.458 95.9096C131.401 95.8527 131.344 95.7958 131.23 95.7958C131.116 95.7958 131.002 95.8527 131.002 95.9096C130.945 95.9666 130.945 96.1942 130.945 96.4788V99.3817C130.945 99.7232 130.945 99.894 131.002 99.9509C131.059 100.008 131.116 100.065 131.287 100.065C131.401 100.065 131.515 100.008 131.515 99.9509C131.572 99.894 131.572 99.7232 131.572 99.4386V96.4788H131.515ZM136.648 94.7712L132.142 106.611H131.059L135.564 94.7712H136.648ZM138.587 102.512V104.504C138.587 105.017 138.53 105.415 138.416 105.643C138.302 105.871 138.131 106.098 137.788 106.326C137.446 106.497 137.047 106.611 136.534 106.611C135.963 106.611 135.45 106.497 135.165 106.326C134.823 106.155 134.652 105.927 134.538 105.643C134.424 105.415 134.367 105.017 134.367 104.561V102.512C134.367 101.943 134.424 101.545 134.538 101.26C134.652 100.975 134.88 100.748 135.222 100.577C135.564 100.406 135.963 100.292 136.42 100.292C136.99 100.292 137.389 100.406 137.731 100.577C138.074 100.748 138.302 100.975 138.416 101.26C138.53 101.545 138.587 101.943 138.587 102.512ZM136.819 102C136.819 101.715 136.819 101.488 136.762 101.431C136.705 101.374 136.648 101.317 136.534 101.317C136.42 101.317 136.306 101.374 136.306 101.431C136.249 101.488 136.249 101.715 136.249 102V104.903C136.249 105.244 136.249 105.415 136.306 105.472C136.363 105.529 136.42 105.586 136.534 105.586C136.648 105.586 136.762 105.529 136.762 105.472C136.819 105.415 136.819 105.244 136.819 104.96V102Z" fill="black"/>
<path d="M258.01 42.7467H262.231C263.086 42.7467 263.714 42.8036 264.113 42.8605C264.512 42.9175 264.911 43.0882 265.197 43.3159C265.539 43.5436 265.767 43.8282 265.995 44.2266C266.223 44.5681 266.337 45.0235 266.337 45.4788C266.337 45.9911 266.223 46.4465 265.938 46.8449C265.653 47.2434 265.311 47.5849 264.854 47.7556C265.482 47.9264 265.995 48.2679 266.337 48.7233C266.679 49.1786 266.85 49.6909 266.85 50.317C266.85 50.7724 266.736 51.2846 266.508 51.74C266.28 52.1954 265.995 52.5369 265.596 52.8215C265.197 53.1061 264.74 53.2768 264.17 53.3338C263.828 53.3907 262.972 53.3907 261.604 53.3907H258.01V42.7467ZM260.178 44.5112V46.9588H261.604C262.459 46.9588 262.972 46.9588 263.143 46.9018C263.486 46.8449 263.771 46.7311 263.999 46.5034C264.227 46.2757 264.341 45.9911 264.341 45.6496C264.341 45.3081 264.227 45.0804 264.056 44.8527C263.885 44.6251 263.6 44.5112 263.257 44.4543C263.029 44.4543 262.459 44.3974 261.432 44.3974H260.178V44.5112ZM260.178 48.7233V51.5692H262.174C262.972 51.5692 263.429 51.5692 263.657 51.5123C263.999 51.4554 264.227 51.3416 264.455 51.1139C264.683 50.8862 264.74 50.6016 264.74 50.2032C264.74 49.8617 264.683 49.634 264.512 49.4063C264.341 49.1786 264.113 49.0079 263.828 48.894C263.543 48.7802 262.915 48.7233 261.946 48.7233H260.178Z" fill="#3136A0"/>
<path d="M268.733 48.1541V42.7467H270.786V46.3896L271.756 45.5358V46.9018L270.786 47.7556V53.3338H268.733V49.5201L267.764 50.3739V49.0079L268.733 48.1541Z" fill="#3136A0"/>
<path d="M277.288 50.8862L279.341 51.2277C279.056 51.9677 278.657 52.5369 278.087 52.9353C277.516 53.3337 276.832 53.5045 275.976 53.5045C274.665 53.5045 273.638 53.0491 273.011 52.1953C272.497 51.5123 272.269 50.6016 272.269 49.577C272.269 48.3248 272.611 47.3002 273.296 46.6172C273.98 45.8773 274.779 45.5357 275.805 45.5357C276.946 45.5357 277.858 45.9342 278.486 46.6741C279.17 47.4141 279.455 48.6094 279.455 50.1462H274.322C274.322 50.7723 274.494 51.2277 274.836 51.5692C275.121 51.9107 275.52 52.0815 276.033 52.0815C276.376 52.0815 276.604 51.9677 276.832 51.7969C277.06 51.6261 277.174 51.2846 277.288 50.8862ZM277.402 48.8371C277.402 48.2679 277.231 47.8125 276.946 47.471C276.661 47.1864 276.319 47.0156 275.862 47.0156C275.406 47.0156 275.064 47.1864 274.779 47.471C274.494 47.8125 274.322 48.211 274.379 48.7802H277.402V48.8371ZM277.231 53.3337C277.117 53.3907 277.06 53.5045 277.003 53.5614C276.946 53.6183 276.889 53.7322 276.832 53.846C276.775 53.9598 276.718 54.0737 276.718 54.1306C276.661 54.2444 276.661 54.3583 276.661 54.4152C276.661 54.586 276.718 54.6998 276.775 54.8136C276.832 54.9275 277.003 54.9844 277.174 54.9844C277.288 54.9844 277.345 54.9844 277.459 54.9275C277.573 54.8706 277.687 54.8706 277.744 54.8136V56.009C277.345 56.1797 277.003 56.2936 276.661 56.2936C276.376 56.2936 276.147 56.2366 275.976 56.1797C275.805 56.1228 275.634 56.009 275.463 55.8951C275.292 55.7813 275.235 55.6105 275.178 55.4398C275.121 55.269 275.064 55.0982 275.064 54.9275C275.064 54.6429 275.121 54.3583 275.292 54.0737C275.463 53.7891 275.691 53.5045 275.976 53.2768H277.231V53.3337Z" fill="#3136A0"/>
<path d="M288.124 53.3338H286.242V52.1954C285.957 52.6507 285.557 52.9353 285.158 53.163C284.759 53.3907 284.303 53.5045 283.846 53.5045C282.991 53.5045 282.193 53.163 281.565 52.423C280.938 51.6831 280.596 50.7155 280.596 49.4632C280.596 48.1541 280.881 47.1864 281.508 46.5034C282.136 45.8204 282.877 45.4788 283.846 45.4788C284.702 45.4788 285.443 45.8204 286.071 46.5603V42.7467H288.124V53.3338ZM282.706 49.3494C282.706 50.1463 282.82 50.7724 283.048 51.1139C283.39 51.6262 283.846 51.9108 284.417 51.9108C284.873 51.9108 285.272 51.74 285.614 51.3416C285.957 50.9431 286.128 50.3739 286.128 49.5771C286.128 48.7233 285.957 48.0402 285.671 47.6987C285.329 47.3003 284.93 47.1295 284.474 47.1295C284.018 47.1295 283.561 47.3003 283.276 47.6987C282.877 47.9833 282.706 48.6094 282.706 49.3494Z" fill="#3136A0"/>
<path d="M289.151 45.6496H291.318L293.143 51.1139L294.911 45.6496H297.021L294.283 53.0492L293.827 54.3583C293.656 54.8137 293.485 55.1552 293.314 55.3829C293.143 55.6106 292.972 55.8382 292.743 55.9521C292.515 56.0659 292.287 56.2367 291.945 56.2936C291.66 56.3505 291.318 56.4074 290.918 56.4074C290.519 56.4074 290.12 56.3505 289.778 56.2936L289.607 54.6998C289.949 54.7568 290.234 54.8137 290.462 54.8137C290.918 54.8137 291.261 54.6998 291.489 54.4152C291.717 54.1307 291.888 53.7891 292.002 53.3338L289.151 45.6496Z" fill="#3136A0"/>
<path d="M257.84 63.4085H259.722V64.4331C260.407 63.6362 261.205 63.2378 262.118 63.2378C262.631 63.2378 263.03 63.3516 263.372 63.5224C263.714 63.75 264.057 64.0346 264.285 64.4331C264.627 64.0346 264.969 63.6931 265.368 63.5224C265.768 63.2947 266.167 63.2378 266.623 63.2378C267.193 63.2378 267.65 63.3516 268.049 63.5793C268.448 63.807 268.733 64.1485 268.904 64.6038C269.018 64.9454 269.132 65.4576 269.132 66.1976V71.0927H267.079V66.7099C267.079 65.9699 267.022 65.4576 266.851 65.2299C266.68 64.9454 266.395 64.7746 265.996 64.7746C265.711 64.7746 265.425 64.8884 265.197 65.0592C264.969 65.23 264.741 65.5145 264.627 65.7991C264.513 66.1407 264.456 66.6529 264.456 67.3929V71.0927H262.403V66.8806C262.403 66.1407 262.346 65.6284 262.289 65.4576C262.232 65.23 262.118 65.0592 261.946 65.0023C261.775 64.8884 261.604 64.8315 261.319 64.8315C261.034 64.8315 260.749 64.8884 260.464 65.0592C260.235 65.23 260.007 65.4576 259.95 65.7991C259.836 66.1407 259.779 66.6529 259.779 67.3929V71.0927H257.726V63.4085H257.84Z" fill="#3136A0"/>
<path d="M270.729 67.1652C270.729 66.4822 270.901 65.8561 271.243 65.23C271.585 64.6039 272.041 64.0916 272.669 63.807C273.296 63.4655 273.98 63.2947 274.722 63.2947C275.862 63.2947 276.832 63.6931 277.573 64.4331C278.315 65.1731 278.714 66.1407 278.714 67.2791C278.714 68.4175 278.315 69.3851 277.573 70.182C276.832 70.9219 275.862 71.3204 274.722 71.3204C274.037 71.3204 273.353 71.1496 272.726 70.865C272.098 70.5235 271.585 70.0681 271.243 69.442C270.901 68.8159 270.729 68.019 270.729 67.1652ZM272.783 67.2222C272.783 67.9621 272.954 68.5882 273.353 68.9867C273.695 69.3851 274.151 69.6128 274.665 69.6128C275.178 69.6128 275.634 69.3851 275.976 68.9867C276.319 68.5882 276.49 68.019 276.49 67.2222C276.49 66.4822 276.319 65.913 275.976 65.5146C275.634 65.1161 275.178 64.8885 274.665 64.8885C274.151 64.8885 273.695 65.1161 273.353 65.5146C272.954 65.913 272.783 66.4822 272.783 67.2222Z" fill="#3136A0"/>
<path d="M287.212 71.0927H285.158V67.1652C285.158 66.3114 285.101 65.7992 285.044 65.5715C284.93 65.3438 284.816 65.1161 284.645 65.0023C284.474 64.8884 284.189 64.7746 283.961 64.7746C283.619 64.7746 283.276 64.8884 282.991 65.0592C282.706 65.23 282.535 65.5146 282.421 65.7992C282.307 66.1407 282.25 66.7099 282.25 67.5637V71.0358H280.197V63.3516H282.079V64.49C282.763 63.6362 283.619 63.1808 284.588 63.1808C285.044 63.1808 285.444 63.2378 285.843 63.4085C286.242 63.5793 286.47 63.75 286.698 64.0346C286.869 64.2623 287.04 64.5469 287.097 64.8884C287.155 65.23 287.212 65.6853 287.212 66.2545V71.0927Z" fill="#3136A0"/>
<path d="M292.801 63.4086V65.0023H291.432V68.076C291.432 68.7021 291.432 69.0436 291.489 69.1574C291.489 69.2713 291.603 69.3282 291.66 69.442C291.717 69.5559 291.888 69.5559 292.002 69.5559C292.173 69.5559 292.458 69.499 292.801 69.3851L292.972 70.9789C292.515 71.2066 291.945 71.2635 291.375 71.2635C291.033 71.2635 290.69 71.2066 290.405 71.0927C290.12 70.9789 289.892 70.8081 289.778 70.6374C289.664 70.4666 289.55 70.182 289.493 69.8405C289.436 69.6128 289.436 69.1005 289.436 68.4175V65.0592H288.523V63.4655H289.436V61.9286L291.489 60.7333V63.4655H292.801V63.4086Z" fill="#3136A0"/>
<path d="M295.709 65.7422L293.884 65.4007C294.112 64.6608 294.454 64.0916 294.968 63.75C295.481 63.4085 296.222 63.2378 297.249 63.2378C298.161 63.2378 298.846 63.3516 299.302 63.5793C299.758 63.807 300.044 64.0916 300.215 64.3762C300.386 64.7177 300.5 65.2869 300.5 66.1976V68.5882C300.5 69.2713 300.557 69.7835 300.614 70.0681C300.671 70.4096 300.785 70.7512 300.956 71.0927H298.96C298.903 70.9788 298.846 70.7512 298.789 70.4666C298.732 70.3527 298.732 70.2389 298.732 70.2389C298.39 70.5804 297.99 70.8081 297.591 70.9788C297.192 71.1496 296.793 71.2065 296.336 71.2065C295.538 71.2065 294.911 70.9788 294.454 70.5804C293.998 70.125 293.77 69.6128 293.77 68.9297C293.77 68.4744 293.884 68.1329 294.055 67.7913C294.283 67.4498 294.568 67.1652 294.911 66.9945C295.31 66.8237 295.823 66.6529 296.508 66.5391C297.477 66.3683 298.104 66.1976 298.504 66.0268V65.7991C298.504 65.4007 298.39 65.1161 298.219 64.9454C298.047 64.7746 297.648 64.7177 297.135 64.7177C296.793 64.7177 296.508 64.7746 296.279 64.9454C296.051 65.173 295.88 65.4007 295.709 65.7422ZM298.447 67.3929C298.161 67.5067 297.762 67.5637 297.192 67.6775C296.622 67.7913 296.279 67.9052 296.108 68.019C295.823 68.1898 295.709 68.4175 295.709 68.759C295.709 69.0436 295.823 69.2713 296.051 69.4989C296.279 69.7266 296.508 69.7835 296.85 69.7835C297.192 69.7835 297.591 69.6697 297.876 69.442C298.104 69.2713 298.276 69.0436 298.333 68.759C298.39 68.5882 298.39 68.2467 298.39 67.7913V67.3929H298.447Z" fill="#3136A0"/>
<path d="M301.64 71.0927V69.4989L304.492 66.1976C304.948 65.6853 305.29 65.2869 305.519 65.0592C305.29 65.0592 304.948 65.0592 304.606 65.1161H301.868V63.4085H308.199V64.8315L305.29 68.1898L304.264 69.3282C304.834 69.2713 305.176 69.2713 305.29 69.2713H308.427V71.0358H301.64V71.0927ZM303.979 62.2132V60.278H305.975V62.2132H303.979Z" fill="#3136A0"/>
<path d="M309.397 67.1652C309.397 66.4822 309.568 65.8561 309.91 65.23C310.252 64.6039 310.708 64.0916 311.336 63.807C311.963 63.4655 312.648 63.2947 313.389 63.2947C314.53 63.2947 315.499 63.6931 316.241 64.4331C316.982 65.1731 317.381 66.1407 317.381 67.2791C317.381 68.4175 316.982 69.3851 316.241 70.182C315.499 70.9219 314.53 71.3204 313.389 71.3204C312.705 71.3204 312.02 71.1496 311.393 70.865C310.765 70.5235 310.252 70.0681 309.91 69.442C309.568 68.8159 309.397 68.019 309.397 67.1652ZM311.45 67.2222C311.45 67.9621 311.621 68.5882 312.02 68.9867C312.362 69.3851 312.819 69.6128 313.332 69.6128C313.845 69.6128 314.301 69.3851 314.644 68.9867C314.986 68.5882 315.157 68.019 315.157 67.2222C315.157 66.4822 314.986 65.913 314.644 65.5146C314.301 65.1161 313.845 64.8885 313.332 64.8885C312.819 64.8885 312.362 65.1161 312.02 65.5146C311.678 65.913 311.45 66.4822 311.45 67.2222Z" fill="#3136A0"/>
<path d="M320.347 71.0927L317.895 63.4085H319.891L321.316 68.4175L322.628 63.4085H324.567L325.822 68.4175L327.305 63.4085H329.301L326.848 71.0927H324.909L323.598 66.1407L322.286 71.0927H320.347Z" fill="#3136A0"/>
<path d="M334.89 68.6452L336.943 68.9867C336.658 69.7266 336.259 70.2958 335.688 70.6943C335.118 71.0927 334.434 71.2635 333.578 71.2635C332.266 71.2635 331.24 70.8081 330.612 69.9543C330.099 69.2713 329.871 68.3606 329.871 67.336C329.871 66.0838 330.213 65.0592 330.898 64.3762C331.582 63.6362 332.38 63.2947 333.407 63.2947C334.548 63.2947 335.46 63.6931 336.087 64.4331C336.772 65.1731 337.057 66.3684 337.057 67.9052H331.924C331.924 68.5313 332.095 68.9867 332.438 69.3282C332.723 69.6697 333.122 69.8405 333.635 69.8405C333.977 69.8405 334.205 69.7266 334.434 69.5559C334.662 69.3851 334.776 69.0436 334.89 68.6452ZM335.004 66.596C335.004 66.0269 334.833 65.5715 334.548 65.23C334.262 64.9454 333.92 64.7746 333.464 64.7746C333.008 64.7746 332.666 64.9454 332.38 65.23C332.095 65.5715 331.924 65.9699 331.981 66.5391H335.004V66.596Z" fill="#3136A0"/>
<path d="M190.485 234.281L187.976 223.694H190.143L191.74 230.98L193.679 223.694H196.246L198.128 231.094L199.782 223.694H201.949L199.382 234.281H197.101L194.991 226.37L192.881 234.281H190.485Z" fill="#3136A0"/>
<path d="M203.888 228.931L202.063 228.589C202.291 227.85 202.633 227.28 203.147 226.939C203.66 226.597 204.401 226.427 205.428 226.427C206.34 226.427 207.025 226.54 207.481 226.768C207.937 226.996 208.222 227.28 208.393 227.565C208.565 227.906 208.679 228.476 208.679 229.386V231.777C208.679 232.46 208.736 232.972 208.793 233.257C208.85 233.598 208.964 233.94 209.135 234.281H207.025C206.968 234.168 206.911 233.94 206.854 233.655C206.797 233.541 206.797 233.428 206.797 233.428C206.454 233.769 206.055 233.997 205.656 234.168C205.257 234.338 204.858 234.395 204.401 234.395C203.603 234.395 202.975 234.168 202.519 233.769C202.063 233.314 201.835 232.802 201.835 232.118C201.835 231.663 201.949 231.322 202.12 230.98C202.348 230.639 202.633 230.354 202.975 230.183C203.375 230.012 203.888 229.842 204.572 229.728C205.542 229.557 206.169 229.386 206.568 229.216V228.988C206.568 228.589 206.454 228.305 206.283 228.134C206.112 227.963 205.713 227.906 205.2 227.906C204.858 227.906 204.572 227.963 204.344 228.134C204.173 228.305 204.002 228.589 203.888 228.931ZM206.625 230.582C206.34 230.695 205.941 230.752 205.371 230.866C204.8 230.98 204.458 231.094 204.287 231.208C204.002 231.379 203.888 231.606 203.888 231.948C203.888 232.232 204.002 232.46 204.23 232.688C204.458 232.915 204.686 232.972 205.029 232.972C205.371 232.972 205.77 232.858 206.055 232.631C206.283 232.46 206.454 232.232 206.511 231.948C206.568 231.777 206.568 231.435 206.568 230.98V230.582H206.625Z" fill="#3136A0"/>
<path d="M217.69 234.281H215.808V233.143C215.522 233.598 215.123 233.883 214.724 234.111C214.325 234.338 213.869 234.452 213.412 234.452C212.557 234.452 211.758 234.111 211.131 233.371C210.504 232.631 210.161 231.663 210.161 230.411C210.161 229.102 210.447 228.134 211.074 227.451C211.701 226.768 212.443 226.426 213.412 226.426C214.268 226.426 215.009 226.768 215.637 227.508V223.694H217.69V234.281ZM212.215 230.24C212.215 231.037 212.329 231.663 212.557 232.005C212.899 232.517 213.355 232.801 213.926 232.801C214.382 232.801 214.781 232.631 215.123 232.232C215.465 231.834 215.637 231.265 215.637 230.468C215.637 229.614 215.465 228.931 215.18 228.589C214.838 228.191 214.439 228.02 213.983 228.02C213.526 228.02 213.07 228.191 212.785 228.589C212.386 228.931 212.215 229.5 212.215 230.24Z" fill="#3136A0"/>
<path d="M218.716 226.597H220.883L222.708 232.062L224.476 226.597H226.587L223.849 233.997L223.393 235.306C223.222 235.761 223.051 236.103 222.88 236.331C222.708 236.558 222.537 236.786 222.309 236.9C222.081 237.014 221.853 237.184 221.511 237.241C221.226 237.298 220.883 237.355 220.484 237.355C220.085 237.355 219.686 237.298 219.344 237.241L219.172 235.647C219.515 235.704 219.8 235.761 220.028 235.761C220.484 235.761 220.826 235.647 221.054 235.363C221.283 235.078 221.454 234.737 221.568 234.281L218.716 226.597Z" fill="#3136A0"/>
<path d="M188.889 244.356H190.771V245.495C190.999 245.096 191.341 244.812 191.797 244.584C192.196 244.356 192.71 244.242 193.166 244.242C194.078 244.242 194.82 244.584 195.447 245.267C196.075 245.95 196.36 246.918 196.36 248.17C196.36 249.422 196.075 250.447 195.447 251.13C194.82 251.813 194.078 252.211 193.166 252.211C192.767 252.211 192.367 252.154 192.025 251.983C191.683 251.813 191.341 251.528 190.942 251.13V255H188.889V244.356ZM190.885 248.056C190.885 248.91 191.056 249.536 191.398 249.991C191.74 250.39 192.139 250.617 192.653 250.617C193.109 250.617 193.508 250.447 193.85 250.048C194.135 249.65 194.307 249.024 194.307 248.17C194.307 247.373 194.135 246.747 193.793 246.405C193.451 246.064 193.052 245.836 192.596 245.836C192.082 245.836 191.683 246.007 191.341 246.405C191.056 246.747 190.885 247.259 190.885 248.056Z" fill="#3136A0"/>
<path d="M199.953 251.983H197.9V244.299H199.782V245.381C200.124 244.868 200.409 244.527 200.637 244.356C200.922 244.185 201.207 244.128 201.493 244.128C201.949 244.128 202.405 244.242 202.804 244.527L202.177 246.291C201.835 246.064 201.493 245.95 201.207 245.95C200.922 245.95 200.694 246.007 200.466 246.178C200.295 246.348 200.124 246.633 200.01 247.031C199.896 247.43 199.839 248.284 199.839 249.593V251.983H199.953Z" fill="#3136A0"/>
<path d="M203.318 248.056C203.318 247.373 203.489 246.747 203.831 246.121C204.173 245.495 204.629 244.982 205.257 244.698C205.884 244.356 206.568 244.185 207.31 244.185C208.45 244.185 209.42 244.584 210.161 245.324C210.903 246.064 211.302 247.031 211.302 248.17C211.302 249.308 210.903 250.276 210.161 251.073C209.42 251.813 208.45 252.211 207.31 252.211C206.625 252.211 205.941 252.04 205.314 251.756C204.686 251.414 204.173 250.959 203.831 250.333C203.489 249.707 203.318 248.967 203.318 248.056ZM205.371 248.17C205.371 248.91 205.542 249.536 205.941 249.934C206.283 250.333 206.74 250.56 207.253 250.56C207.766 250.56 208.222 250.333 208.565 249.934C208.907 249.536 209.078 248.967 209.078 248.17C209.078 247.43 208.907 246.861 208.565 246.462C208.222 246.064 207.766 245.836 207.253 245.836C206.74 245.836 206.283 246.064 205.941 246.462C205.542 246.804 205.371 247.43 205.371 248.17Z" fill="#3136A0"/>
<path d="M219.857 251.983H217.975V250.845C217.689 251.3 217.29 251.585 216.891 251.813C216.492 252.04 216.036 252.154 215.579 252.154C214.724 252.154 213.925 251.813 213.298 251.073C212.671 250.333 212.328 249.365 212.328 248.113C212.328 246.804 212.614 245.836 213.241 245.153C213.868 244.47 214.61 244.128 215.579 244.128C216.435 244.128 217.176 244.47 217.804 245.21V241.396H219.857V251.983ZM214.439 247.999C214.439 248.796 214.553 249.422 214.781 249.764C215.123 250.276 215.579 250.56 216.15 250.56C216.606 250.56 217.005 250.39 217.347 249.991C217.689 249.593 217.861 249.024 217.861 248.227C217.861 247.373 217.689 246.69 217.404 246.348C217.062 245.95 216.663 245.779 216.207 245.779C215.75 245.779 215.294 245.95 215.009 246.348C214.61 246.69 214.439 247.259 214.439 247.999Z" fill="#3136A0"/>
<path d="M226.929 251.983V250.845C226.644 251.243 226.301 251.585 225.845 251.813C225.389 252.04 224.933 252.154 224.419 252.154C223.906 252.154 223.45 252.04 223.051 251.813C222.651 251.585 222.366 251.243 222.138 250.845C221.91 250.447 221.853 249.877 221.853 249.137V244.299H223.906V247.828C223.906 248.91 223.963 249.593 224.02 249.82C224.077 250.048 224.248 250.276 224.419 250.39C224.591 250.504 224.876 250.617 225.161 250.617C225.503 250.617 225.845 250.503 226.073 250.333C226.301 250.162 226.53 249.934 226.644 249.65C226.758 249.365 226.815 248.682 226.815 247.601V244.356H228.868V252.04H226.929V251.983Z" fill="#3136A0"/>
<path d="M230.807 251.983V241.396H232.86V247.031L235.255 244.356H237.765L235.141 247.145L237.936 251.983H235.769L233.829 248.568L232.86 249.536V251.983H230.807Z" fill="#3136A0"/>
<path d="M242.669 244.356V245.95H241.301V249.024C241.301 249.65 241.301 249.991 241.358 250.105C241.358 250.219 241.472 250.276 241.529 250.39C241.586 250.504 241.757 250.504 241.871 250.504C242.042 250.504 242.327 250.447 242.669 250.333L242.841 251.927C242.384 252.154 241.814 252.211 241.244 252.211C240.901 252.211 240.559 252.154 240.274 252.04C239.989 251.927 239.761 251.756 239.647 251.585C239.533 251.414 239.419 251.13 239.362 250.788C239.305 250.56 239.305 250.048 239.305 249.365V246.007H238.392V244.413H239.305V242.876L241.358 241.681V244.413H242.669V244.356Z" fill="#3136A0"/>
<path d="M243.582 248.056C243.582 247.373 243.753 246.747 244.095 246.121C244.437 245.495 244.894 244.982 245.521 244.698C246.148 244.356 246.833 244.185 247.574 244.185C248.715 244.185 249.684 244.584 250.426 245.324C251.167 246.064 251.566 247.031 251.566 248.17C251.566 249.308 251.167 250.276 250.426 251.073C249.684 251.813 248.715 252.211 247.574 252.211C246.89 252.211 246.205 252.04 245.578 251.756C244.951 251.414 244.437 250.959 244.095 250.333C243.753 249.707 243.582 248.967 243.582 248.056ZM245.692 248.17C245.692 248.91 245.863 249.536 246.262 249.934C246.605 250.333 247.061 250.56 247.574 250.56C248.087 250.56 248.544 250.333 248.886 249.934C249.228 249.536 249.399 248.967 249.399 248.17C249.399 247.43 249.228 246.861 248.886 246.462C248.544 246.064 248.087 245.836 247.574 245.836C247.061 245.836 246.605 246.064 246.262 246.462C245.863 246.804 245.692 247.43 245.692 248.17Z" fill="#3136A0"/>
<path d="M254.532 251.983L252.08 244.299H254.076L255.502 249.308L256.813 244.299H258.752L260.007 249.308L261.49 244.299H263.486L261.034 251.983H259.095L257.783 247.031L256.471 251.983H254.532Z" fill="#3136A0"/>
<path d="M269.075 249.536L271.128 249.877C270.843 250.617 270.444 251.187 269.874 251.585C269.303 251.983 268.619 252.154 267.763 252.154C266.452 252.154 265.425 251.699 264.798 250.845C264.285 250.162 264.056 249.251 264.056 248.227C264.056 246.974 264.399 245.95 265.083 245.267C265.767 244.527 266.566 244.185 267.592 244.185C268.733 244.185 269.645 244.584 270.273 245.324C270.957 246.064 271.242 247.259 271.242 248.796H266.167C266.167 249.422 266.338 249.877 266.68 250.219C266.965 250.56 267.364 250.731 267.878 250.731C268.22 250.731 268.448 250.617 268.676 250.447C268.904 250.276 268.961 249.934 269.075 249.536ZM269.189 247.487C269.189 246.918 269.018 246.462 268.733 246.121C268.448 245.836 268.106 245.665 267.649 245.665C267.193 245.665 266.851 245.836 266.566 246.121C266.281 246.462 266.11 246.861 266.167 247.43H269.189V247.487Z" fill="#3136A0"/>
<path d="M37.926 77.98H42.1464C43.0018 77.98 43.6292 78.0369 44.0284 78.0938C44.4276 78.1507 44.8269 78.3215 45.112 78.5492C45.4542 78.7769 45.6823 79.0614 45.9105 79.4599C46.1386 79.8014 46.2526 80.2568 46.2526 80.7121C46.2526 81.2244 46.1386 81.6798 45.8534 82.0782C45.5683 82.4766 45.2261 82.8181 44.7698 82.9889C45.3972 83.1597 45.9105 83.5012 46.2526 83.9565C46.5948 84.4119 46.7659 84.9242 46.7659 85.5503C46.7659 86.0056 46.6519 86.5179 46.4237 86.9733C46.1956 87.4286 45.9105 87.7702 45.5112 88.0548C45.112 88.3393 44.6558 88.5101 44.0854 88.567C43.7433 88.6239 42.8878 88.6239 41.519 88.6239H37.926V77.98ZM40.0932 79.7445V82.192H41.519C42.3745 82.192 42.8878 82.192 43.0589 82.1351C43.4011 82.0782 43.6862 81.9643 43.9143 81.7367C44.1425 81.509 44.2565 81.2244 44.2565 80.8829C44.2565 80.5414 44.1425 80.3137 43.9714 80.086C43.8003 79.8583 43.5151 79.7445 43.1729 79.6876C42.9448 79.6876 42.3745 79.6306 41.3479 79.6306H40.0932V79.7445ZM40.0932 83.9565V86.8025H42.0893C42.8878 86.8025 43.344 86.8025 43.5722 86.7456C43.9143 86.6887 44.1425 86.5748 44.3706 86.3472C44.5987 86.1195 44.6558 85.8349 44.6558 85.4364C44.6558 85.0949 44.5987 84.8673 44.4276 84.6396C44.2565 84.4119 44.0284 84.2411 43.7432 84.1273C43.4581 84.0135 42.8307 83.9565 41.8612 83.9565H40.0932Z" fill="#3136A0"/>
<path d="M48.591 83.3874V77.98H50.6441V81.6228L51.6137 80.769V82.1351L50.6441 82.9889V88.567H48.591V84.7534L47.6215 85.6072V84.2411L48.591 83.3874Z" fill="#3136A0"/>
<path d="M57.2027 86.1194L59.2559 86.461C58.9707 87.2009 58.5715 87.7701 58.0012 88.1686C57.4309 88.567 56.7465 88.7378 55.891 88.7378C54.5793 88.7378 53.5527 88.2824 52.9254 87.4286C52.4121 86.7456 52.184 85.8349 52.184 84.8103C52.184 83.5581 52.5262 82.5335 53.2105 81.8505C53.8949 81.1105 54.6933 80.769 55.7199 80.769C56.8605 80.769 57.7731 81.1674 58.4004 81.9074C59.0848 82.6474 59.3699 83.8427 59.3699 85.3795H54.2941C54.2941 86.0056 54.4652 86.461 54.8074 86.8025C55.0926 87.144 55.4918 87.3148 56.0051 87.3148C56.3473 87.3148 56.5754 87.2009 56.8035 87.0302C57.0316 86.8594 57.0887 86.5179 57.2027 86.1194ZM57.3168 84.0703C57.3168 83.5012 57.1457 83.0458 56.8605 82.7043C56.5754 82.4197 56.2332 82.2489 55.777 82.2489C55.3207 82.2489 54.9785 82.4197 54.6934 82.7043C54.4082 83.0458 54.2371 83.4442 54.2941 84.0134H57.3168V84.0703ZM57.0887 88.567C56.9746 88.6239 56.9176 88.7378 56.8605 88.7947C56.8035 88.8516 56.7465 88.9654 56.6895 89.0793C56.6324 89.1931 56.5754 89.307 56.5754 89.3639C56.5184 89.4777 56.5184 89.5916 56.5184 89.6485C56.5184 89.8192 56.5754 89.9331 56.6324 90.0469C56.6895 90.1607 56.8606 90.2177 57.0316 90.2177C57.1457 90.2177 57.2027 90.2177 57.3168 90.1607C57.4309 90.1038 57.5449 90.1038 57.602 90.0469V91.2422C57.2027 91.413 56.8606 91.5268 56.5184 91.5268C56.2332 91.5268 56.0051 91.4699 55.834 91.413C55.6629 91.3561 55.4918 91.2422 55.3207 91.1284C55.1496 91.0145 55.0926 90.8438 55.0355 90.673C54.9785 90.5023 54.9215 90.3315 54.9215 90.1607C54.9215 89.8761 54.9785 89.5915 55.1496 89.3069C55.3207 89.0224 55.5488 88.7378 55.834 88.5101H57.0887V88.567Z" fill="#3136A0"/>
<path d="M67.9818 88.567H66.0997V87.4286C65.8146 87.884 65.4154 88.1686 65.0161 88.3963C64.6169 88.624 64.1607 88.7378 63.7044 88.7378C62.8489 88.7378 62.0505 88.3963 61.4231 87.6563C60.7958 86.9164 60.4536 85.9487 60.4536 84.6965C60.4536 83.3873 60.7388 82.4197 61.3661 81.7367C61.9935 81.0536 62.7349 80.7121 63.7044 80.7121C64.5599 80.7121 65.3013 81.0536 65.9286 81.7936V77.98H67.9818V88.567ZM62.5638 84.5827C62.5638 85.3795 62.6778 86.0057 62.906 86.3472C63.2482 86.8594 63.7044 87.144 64.2747 87.144C64.731 87.144 65.1302 86.9733 65.4724 86.5748C65.8146 86.1764 65.9857 85.6072 65.9857 84.8103C65.9857 83.9565 65.8146 83.2735 65.5294 82.932C65.1872 82.5336 64.788 82.3628 64.3318 82.3628C63.8755 82.3628 63.4193 82.5336 63.1341 82.932C62.7349 83.2735 62.5638 83.8427 62.5638 84.5827Z" fill="#3136A0"/>
<path d="M69.0653 80.9398H71.2325L73.0575 86.404L74.8255 80.9398H76.9357L74.1982 88.3393L73.7419 89.6485C73.5708 90.1038 73.3997 90.4453 73.2286 90.673C73.0575 90.9007 72.8864 91.1284 72.6583 91.2422C72.4302 91.3561 72.2021 91.5268 71.8599 91.5837C71.5747 91.6407 71.2325 91.6976 70.8333 91.6976C70.4341 91.6976 70.0348 91.6407 69.6927 91.5837L69.5216 89.99C69.8638 90.0469 70.1489 90.1038 70.377 90.1038C70.8333 90.1038 71.1755 89.99 71.4036 89.7054C71.6317 89.4208 71.8028 89.0793 71.9169 88.6239L69.0653 80.9398Z" fill="#3136A0"/>
<path d="M0 98.6418H1.88204V99.7802C2.11017 99.3817 2.45236 99.0972 2.90861 98.8695C3.30784 98.6418 3.82112 98.528 4.27737 98.528C5.18988 98.528 5.93129 98.8695 6.55864 99.5525C7.18599 100.236 7.47115 101.203 7.47115 102.455C7.47115 103.708 7.18599 104.732 6.55864 105.415C5.93129 106.098 5.18988 106.497 4.27737 106.497C3.87815 106.497 3.47893 106.44 3.13674 106.269C2.79455 106.098 2.45236 105.814 2.05314 105.415V109.286H0V98.6418ZM1.99611 102.342C1.99611 103.195 2.1672 103.821 2.50939 104.277C2.85158 104.675 3.2508 104.903 3.76409 104.903C4.22034 104.903 4.61956 104.732 4.96175 104.334C5.24691 103.935 5.41801 103.309 5.41801 102.455C5.41801 101.659 5.24691 101.032 4.90472 100.691C4.56253 100.349 4.16331 100.122 3.70706 100.122C3.19377 100.122 2.79455 100.292 2.45236 100.691C2.1672 101.032 1.99611 101.602 1.99611 102.342Z" fill="#3136A0"/>
<path d="M11.0644 106.326H9.01123V98.6418H10.8933V99.7233C11.2355 99.211 11.5206 98.8695 11.7487 98.6987C12.0339 98.528 12.3191 98.4711 12.6042 98.4711C13.0605 98.4711 13.5167 98.5849 13.9159 98.8695L13.2886 100.634C12.9464 100.406 12.6042 100.292 12.3191 100.292C12.0339 100.292 11.8058 100.349 11.5777 100.52C11.4066 100.691 11.2355 100.976 11.1214 101.374C11.0073 101.772 10.9503 102.626 10.9503 103.935V106.326H11.0644Z" fill="#3136A0"/>
<path d="M14.3718 102.398C14.3718 101.715 14.5429 101.089 14.8851 100.463C15.2273 99.8371 15.6836 99.3248 16.3109 99.0402C16.9382 98.6987 17.6226 98.528 18.364 98.528C19.5047 98.528 20.4742 98.9264 21.2156 99.6663C21.957 100.406 22.3563 101.374 22.3563 102.512C22.3563 103.651 21.957 104.618 21.2156 105.415C20.4742 106.155 19.5047 106.554 18.364 106.554C17.6797 106.554 16.9953 106.383 16.3679 106.098C15.7406 105.757 15.2273 105.301 14.8851 104.675C14.5429 104.049 14.3718 103.252 14.3718 102.398ZM16.482 102.512C16.482 103.252 16.6531 103.878 17.0523 104.277C17.3945 104.675 17.8508 104.903 18.364 104.903C18.8773 104.903 19.3336 104.675 19.6758 104.277C20.018 103.878 20.1891 103.309 20.1891 102.512C20.1891 101.772 20.018 101.203 19.6758 100.805C19.3336 100.406 18.8773 100.179 18.364 100.179C17.8508 100.179 17.3945 100.406 17.0523 100.805C16.6531 101.146 16.482 101.715 16.482 102.512Z" fill="#3136A0"/>
<path d="M25.8923 98.6418V106.041C25.8923 107.009 25.8353 107.692 25.7212 108.09C25.6072 108.489 25.322 108.83 24.9798 109.058C24.6376 109.286 24.1244 109.4 23.6111 109.4C23.3829 109.4 23.2118 109.4 22.9837 109.343C22.7556 109.286 22.4704 109.229 22.2423 109.172L22.5845 107.464C22.6986 107.464 22.7556 107.521 22.8697 107.521C22.9837 107.521 23.0408 107.521 23.0978 107.521C23.3259 107.521 23.497 107.464 23.6111 107.407C23.7251 107.294 23.8392 107.237 23.8962 107.066C23.9533 106.952 23.9533 106.554 23.9533 105.928V98.6418H25.8923ZM23.8962 97.6172V95.7389H25.9494V97.6172H23.8962Z" fill="#3136A0"/>
<path d="M32.5079 103.878L34.5611 104.22C34.2759 104.96 33.8767 105.529 33.3064 105.928C32.736 106.326 32.0517 106.497 31.1962 106.497C29.8845 106.497 28.8579 106.041 28.2305 105.188C27.7173 104.505 27.4891 103.594 27.4891 102.569C27.4891 101.317 27.8313 100.292 28.5157 99.6094C29.2001 98.8695 29.9985 98.528 31.0251 98.528C32.1657 98.528 33.0782 98.9264 33.7056 99.6663C34.39 100.406 34.6751 101.602 34.6751 103.138H29.5993C29.5993 103.765 29.7704 104.22 30.1126 104.561C30.3977 104.903 30.797 105.074 31.3103 105.074C31.6524 105.074 31.8806 104.96 32.1087 104.789C32.3368 104.618 32.3939 104.277 32.5079 103.878ZM32.622 101.829C32.622 101.26 32.4509 100.805 32.1657 100.463C31.8806 100.179 31.5384 100.008 31.0821 100.008C30.6259 100.008 30.2837 100.179 29.9985 100.463C29.7134 100.805 29.5423 101.203 29.5993 101.772H32.622V101.829Z" fill="#3136A0"/>
<path d="M36.2151 106.326V95.7389H38.2112V101.374L40.6065 98.6987H43.1159L40.4925 101.488L43.287 106.326H41.1198L39.1807 102.911L38.2112 103.878V106.326H36.2151Z" fill="#3136A0"/>
<path d="M48.0205 98.6418V100.236H46.6518V103.309C46.6518 103.935 46.6518 104.277 46.7088 104.391C46.7088 104.505 46.8229 104.561 46.8799 104.675C46.9369 104.789 47.108 104.789 47.2221 104.789C47.3932 104.789 47.6783 104.732 48.0205 104.618L48.1916 106.212C47.7354 106.44 47.1651 106.497 46.5947 106.497C46.2526 106.497 45.9104 106.44 45.6252 106.326C45.3401 106.212 45.1119 106.041 44.9979 105.871C44.8838 105.7 44.7697 105.415 44.7127 105.074C44.6557 104.846 44.6557 104.334 44.6557 103.651V100.293H43.7432V98.6988H44.6557V97.1619L46.7088 95.9666V98.6988H48.0205V98.6418Z" fill="#3136A0"/>
<path d="M48.9902 102.398C48.9902 101.715 49.1613 101.089 49.5035 100.463C49.8457 99.8371 50.302 99.3248 50.9293 99.0402C51.5567 98.6987 52.241 98.528 52.9825 98.528C54.1231 98.528 55.0926 98.9264 55.834 99.6663C56.5755 100.406 56.9747 101.374 56.9747 102.512C56.9747 103.651 56.5755 104.618 55.834 105.415C55.0926 106.155 54.1231 106.554 52.9825 106.554C52.2981 106.554 51.6137 106.383 50.9863 106.098C50.359 105.757 49.8457 105.301 49.5035 104.675C49.1613 104.049 48.9902 103.252 48.9902 102.398ZM51.0434 102.512C51.0434 103.252 51.2145 103.878 51.6137 104.277C51.9559 104.675 52.4121 104.903 52.9254 104.903C53.4387 104.903 53.895 104.675 54.2372 104.277C54.5793 103.878 54.7504 103.309 54.7504 102.512C54.7504 101.772 54.5793 101.203 54.2372 100.805C53.895 100.406 53.4387 100.179 52.9254 100.179C52.4121 100.179 51.9559 100.406 51.6137 100.805C51.2145 101.146 51.0434 101.715 51.0434 102.512Z" fill="#3136A0"/>
<path d="M59.9404 106.326L57.488 98.6418H59.4841L60.9099 103.651L62.2217 98.6418H64.1607L65.4154 103.651L66.8983 98.6418H68.8944L66.442 106.326H64.5029L63.1912 101.374L61.8795 106.326H59.9404Z" fill="#3136A0"/>
<path d="M74.4835 103.878L76.5366 104.22C76.2515 104.96 75.8523 105.529 75.282 105.928C74.7116 106.326 74.0273 106.497 73.1718 106.497C71.8601 106.497 70.8335 106.041 70.2061 105.188C69.6928 104.505 69.4647 103.594 69.4647 102.569C69.4647 101.317 69.8069 100.292 70.4913 99.6094C71.1757 98.8695 71.9741 98.528 73.0007 98.528C74.1413 98.528 75.0538 98.9264 75.6812 99.6663C76.3656 100.406 76.6507 101.602 76.6507 103.138H71.5749C71.5749 103.765 71.746 104.22 72.0882 104.561C72.3733 104.903 72.7726 105.074 73.2858 105.074C73.628 105.074 73.8562 104.96 74.0843 104.789C74.3124 104.618 74.3695 104.277 74.4835 103.878ZM74.5976 101.829C74.5976 101.26 74.4265 100.805 74.1413 100.463C73.8562 100.179 73.514 100.008 73.0577 100.008C72.6015 100.008 72.2593 100.179 71.9741 100.463C71.689 100.805 71.5179 101.203 71.5749 101.772H74.5976V101.829Z" fill="#3136A0"/>
<path d="M91.4791 6.83036L93.5322 7.51339C93.19 8.65179 92.6767 9.50558 91.9353 10.0748C91.1939 10.644 90.2814 10.9286 89.1408 10.9286C87.715 10.9286 86.5744 10.4732 85.6618 9.50558C84.7493 8.53795 84.2931 7.22879 84.2931 5.57812C84.2931 3.81362 84.7493 2.44754 85.6618 1.47991C86.5744 0.512277 87.772 0 89.2548 0C90.5666 0 91.5931 0.398437 92.3916 1.13839C92.8478 1.59375 93.247 2.21987 93.4752 3.07366L91.365 3.58594C91.2509 3.01674 90.9658 2.6183 90.5666 2.27679C90.1673 1.93527 89.7111 1.82143 89.1408 1.82143C88.3423 1.82143 87.715 2.10603 87.2017 2.67522C86.6884 3.24442 86.4603 4.15513 86.4603 5.40737C86.4603 6.77344 86.6884 7.68415 87.2017 8.25335C87.6579 8.82255 88.2853 9.10714 89.0837 9.10714C89.6541 9.10714 90.1673 8.93638 90.5666 8.53795C90.9658 8.13951 91.308 7.57031 91.4791 6.83036Z" fill="#3136A0"/>
<path d="M94.5587 10.7009V9.10713L97.4103 5.80579C97.8665 5.29351 98.2087 4.89507 98.4369 4.66739C98.2087 4.66739 97.8665 4.66739 97.5244 4.72431H94.7868V3.01672H101.117V4.49663L98.2087 7.85489L97.1822 8.99329C97.7525 8.93637 98.0947 8.93637 98.2087 8.93637H101.345V10.7009H94.5587Z" fill="#3136A0"/>
<path d="M101.802 3.01672H103.969L105.794 8.48101L107.562 3.01672H109.672L106.935 10.4163L106.478 11.7254C106.307 12.1808 106.136 12.5223 105.965 12.75C105.794 12.9777 105.623 13.2053 105.395 13.3192C105.167 13.4899 104.938 13.6038 104.596 13.6607C104.254 13.7176 103.969 13.7745 103.57 13.7745C103.171 13.7745 102.771 13.7176 102.429 13.6607L102.258 12.0669C102.6 12.1239 102.885 12.1808 103.113 12.1808C103.57 12.1808 103.912 12.0669 104.14 11.7823C104.368 11.4978 104.539 11.1562 104.653 10.7009L101.802 3.01672Z" fill="#3136A0"/>
<path d="M117.999 10.7009H115.946V6.77343C115.946 5.91964 115.889 5.40736 115.832 5.17968C115.718 4.952 115.604 4.72433 115.433 4.61049C115.261 4.49665 114.976 4.38281 114.748 4.38281C114.406 4.38281 114.064 4.49665 113.779 4.66741C113.494 4.83817 113.322 5.12276 113.208 5.40736C113.094 5.69196 113.037 6.31808 113.037 7.17187V10.644H110.984V3.01674H112.866V4.15513C113.551 3.30134 114.406 2.84598 115.376 2.84598C115.832 2.84598 116.231 2.9029 116.63 3.07366C117.029 3.24442 117.258 3.41517 117.486 3.69977C117.657 3.92745 117.828 4.21205 117.885 4.55357C117.942 4.89509 117.999 5.35044 117.999 5.91964V10.7009Z" fill="#3136A0"/>
<path d="M127.067 10.7009H125.014V6.77343C125.014 5.91964 124.957 5.40736 124.9 5.17968C124.843 4.952 124.671 4.72433 124.5 4.61049C124.329 4.49665 124.044 4.38281 123.816 4.38281C123.474 4.38281 123.132 4.49665 122.846 4.66741C122.561 4.83817 122.39 5.12276 122.276 5.40736C122.162 5.74888 122.105 6.31808 122.105 7.17187V10.644H120.052V3.01674H121.934V4.15513C122.618 3.30134 123.474 2.84598 124.443 2.84598C124.9 2.84598 125.299 2.9029 125.698 3.07366C126.097 3.24442 126.325 3.41517 126.554 3.69977C126.725 3.92745 126.896 4.21205 126.953 4.55357C127.01 4.89509 127.067 5.35044 127.067 5.91964V10.7009Z" fill="#3136A0"/>
<path d="M129.12 1.99221V0.113861H131.173V1.99221H129.12ZM129.12 10.7009V3.01676H131.173V10.7009H129.12Z" fill="#3136A0"/>
<path d="M133.169 10.7009V0.113861H135.222V5.74891L137.618 3.07368H140.127L137.504 5.86274L140.298 10.7009H138.131L136.192 7.28574L135.222 8.25337V10.7009H133.169Z" fill="#3136A0"/>
<path d="M141.439 1.99221V0.113861H143.492V1.99221H141.439ZM141.439 10.7009V3.01676H143.492V10.7009H141.439Z" fill="#3136A0"/>
<path d="M64.9023 28.4598V26.8661L67.7539 23.5647C68.2102 23.0525 68.5524 22.654 68.7805 22.4263C68.5524 22.4263 68.2102 22.4263 67.868 22.4833H65.1305V20.7757H71.461V22.1987L68.5524 25.5569L67.5258 26.6953C68.0961 26.6384 68.4383 26.6384 68.5524 26.6384H71.6891V28.4029H64.9023V28.4598Z" fill="#3136A0"/>
<path d="M77.5635 26.0122L79.6166 26.3538C79.3315 27.0937 78.9322 27.6629 78.3619 28.0614C77.7916 28.4598 77.1072 28.6306 76.2517 28.6306C74.94 28.6306 73.9134 28.1752 73.2861 27.3214C72.7728 26.6384 72.5447 25.7277 72.5447 24.7031C72.5447 23.4509 72.8869 22.4263 73.5713 21.7433C74.2556 21.0033 75.0541 20.6618 76.0806 20.6618C77.2213 20.6618 78.1338 21.0602 78.7611 21.8002C79.3885 22.5402 79.7307 23.7355 79.7307 25.2723H74.6548C74.6548 25.8984 74.8259 26.3538 75.1681 26.6953C75.5103 27.0368 75.8525 27.2076 76.3658 27.2076C76.708 27.2076 76.9361 27.0937 77.1642 26.923C77.3353 26.6953 77.4494 26.4107 77.5635 26.0122ZM77.6775 23.9631C77.6775 23.3939 77.5064 22.9386 77.2213 22.5971C76.9361 22.3125 76.5939 22.1417 76.1377 22.1417C75.6814 22.1417 75.3392 22.3125 75.0541 22.5971C74.7689 22.8817 74.5978 23.337 74.6548 23.9062H77.6775V23.9631Z" fill="#3136A0"/>
<path d="M82.8101 28.4598L80.3578 20.7757H82.3539L83.7797 25.7846L85.0914 20.7757H87.0305L88.2852 25.7846L89.768 20.7757H91.7641L89.3118 28.4598H87.3727L86.0609 23.5078L84.7492 28.4598H82.8101Z" fill="#3136A0"/>
<path d="M99.8628 28.4599H97.8097V24.5324C97.8097 23.6786 97.7526 23.1663 97.6956 22.9387C97.6386 22.711 97.4675 22.4833 97.2964 22.3695C97.1253 22.2556 96.8401 22.1418 96.612 22.1418C96.2698 22.1418 95.9276 22.2556 95.6424 22.4264C95.3573 22.5971 95.1862 22.8817 95.0721 23.1663C94.9581 23.5079 94.901 24.077 94.901 24.9308V28.4029H92.8479V20.7757H94.7299V21.9141C95.4143 21.0603 96.2698 20.6049 97.2393 20.6049C97.6956 20.6049 98.0948 20.6619 98.494 20.8326C98.8932 21.0034 99.1214 21.1741 99.3495 21.4587C99.5206 21.6864 99.6917 21.971 99.7487 22.3125C99.8058 22.6541 99.8628 23.1094 99.8628 23.6786V28.4599Z" fill="#3136A0"/>
<path d="M106.364 26.0122L108.418 26.3538C108.132 27.0937 107.733 27.6629 107.163 28.0614C106.593 28.4598 105.908 28.6306 105.053 28.6306C103.741 28.6306 102.714 28.1752 102.087 27.3214C101.574 26.6384 101.346 25.7277 101.346 24.7031C101.346 23.4509 101.688 22.4263 102.372 21.7433C103.057 21.0033 103.855 20.6618 104.882 20.6618C106.022 20.6618 106.935 21.0602 107.562 21.8002C108.19 22.5402 108.532 23.7355 108.532 25.2723H103.456C103.456 25.8984 103.627 26.3538 103.969 26.6953C104.311 27.0368 104.654 27.2076 105.167 27.2076C105.509 27.2076 105.737 27.0937 105.965 26.923C106.136 26.6953 106.307 26.4107 106.364 26.0122ZM106.479 23.9631C106.479 23.3939 106.307 22.9386 106.022 22.5971C105.737 22.3125 105.395 22.1417 104.939 22.1417C104.482 22.1417 104.14 22.3125 103.855 22.5971C103.57 22.8817 103.399 23.337 103.456 23.9062H106.479V23.9631ZM106.307 28.4598C106.193 28.5167 106.136 28.6306 106.079 28.6875C106.022 28.7444 105.965 28.8582 105.908 28.9721C105.851 29.0859 105.794 29.1997 105.794 29.2567C105.794 29.3705 105.737 29.4843 105.737 29.5413C105.737 29.712 105.794 29.8259 105.851 29.9397C105.908 30.0535 106.079 30.1105 106.25 30.1105C106.365 30.1105 106.422 30.1105 106.536 30.0535C106.65 29.9966 106.764 29.9966 106.821 29.9397V31.135C106.422 31.3058 106.079 31.4196 105.737 31.4196C105.452 31.4196 105.224 31.3627 105.053 31.3058C104.882 31.2489 104.711 31.135 104.539 31.0212C104.368 30.9073 104.311 30.7366 104.254 30.5658C104.197 30.3951 104.14 30.2243 104.14 30.0535C104.14 29.7689 104.197 29.4843 104.368 29.1997C104.539 28.9152 104.768 28.6306 105.053 28.4029H106.307V28.4598Z" fill="#3136A0"/>
<path d="M113.721 20.7756V22.3694H112.353V25.443C112.353 26.0692 112.353 26.4107 112.41 26.5245C112.41 26.6384 112.524 26.6953 112.581 26.8091C112.638 26.923 112.809 26.923 112.923 26.923C113.094 26.923 113.379 26.866 113.721 26.7522L113.892 28.3459C113.436 28.5736 112.866 28.6305 112.296 28.6305C111.953 28.6305 111.611 28.5736 111.326 28.4598C111.041 28.3459 110.813 28.1752 110.699 28.0044C110.585 27.8337 110.471 27.5491 110.414 27.2075C110.356 26.9799 110.356 26.4676 110.356 25.7846V22.4263H109.444V20.8325H110.356V19.2957L112.41 18.1004V20.8325H113.721V20.7756Z" fill="#3136A0"/>
<path d="M117.086 28.4599H115.033V20.7757H116.915V21.8572C117.257 21.3449 117.543 21.0034 117.771 20.8326C118.056 20.6619 118.341 20.6049 118.626 20.6049C119.082 20.6049 119.539 20.7188 119.938 21.0034L119.311 22.7679C118.968 22.5402 118.626 22.4264 118.341 22.4264C118.056 22.4264 117.828 22.4833 117.6 22.6541C117.429 22.8248 117.257 23.1094 117.143 23.5079C117.029 23.9063 116.972 24.7601 116.972 26.0692V28.4599H117.086Z" fill="#3136A0"/>
<path d="M120.052 28.4598V26.8661L122.903 23.5647C123.36 23.0525 123.702 22.654 123.93 22.4263C123.702 22.4263 123.36 22.4263 123.018 22.4833H120.28V20.7757H126.611V22.1987L123.702 25.5569L122.675 26.6953C123.246 26.6384 123.588 26.6384 123.702 26.6384H126.839V28.4029H120.052V28.4598Z" fill="#3136A0"/>
<path d="M135.279 28.4599H133.226V24.5324C133.226 23.6786 133.169 23.1663 133.112 22.9387C132.998 22.711 132.884 22.4833 132.713 22.3695C132.542 22.2556 132.257 22.1418 132.028 22.1418C131.686 22.1418 131.344 22.2556 131.059 22.4264C130.774 22.5971 130.603 22.8817 130.489 23.1663C130.375 23.4509 130.318 24.077 130.318 24.9308V28.4029H128.264V20.7757H130.146V21.9141C130.831 21.0603 131.686 20.6049 132.656 20.6049C133.112 20.6049 133.511 20.6619 133.911 20.8326C134.31 21.0034 134.538 21.1741 134.766 21.4587C134.937 21.6864 135.108 21.971 135.165 22.3125C135.222 22.6541 135.279 23.1094 135.279 23.6786V28.4599Z" fill="#3136A0"/>
<path d="M141.781 26.0122L143.834 26.3538C143.549 27.0937 143.15 27.6629 142.579 28.0614C142.009 28.4598 141.325 28.6306 140.469 28.6306C139.158 28.6306 138.131 28.1752 137.504 27.3214C136.99 26.6384 136.762 25.7277 136.762 24.7031C136.762 23.4509 137.104 22.4263 137.789 21.7433C138.473 21.0033 139.272 20.6618 140.298 20.6618C141.439 20.6618 142.351 21.0602 142.979 21.8002C143.606 22.5402 143.948 23.7355 143.948 25.2723H138.872C138.872 25.8984 139.043 26.3538 139.386 26.6953C139.728 27.0368 140.07 27.2076 140.583 27.2076C140.926 27.2076 141.154 27.0937 141.382 26.923C141.496 26.6953 141.667 26.4107 141.781 26.0122ZM141.895 23.9631C141.895 23.3939 141.724 22.9386 141.439 22.5971C141.154 22.3125 140.811 22.1417 140.355 22.1417C139.899 22.1417 139.557 22.3125 139.272 22.5971C138.986 22.8817 138.815 23.337 138.872 23.9062H141.895V23.9631Z" fill="#3136A0"/>
</svg>
