<svg width="14" height="26" viewBox="0 0 14 26" fill="none" xmlns="http://www.w3.org/2000/svg">
<path d="M13.1479 0.984518L9.98772 0.979492C6.43741 0.979492 4.14304 3.31271 4.14304 6.92398V9.66479H0.965652C0.691089 9.66479 0.46875 9.88542 0.46875 10.1576V14.1287C0.46875 14.4008 0.691342 14.6212 0.965652 14.6212H4.14304V24.6416C4.14304 24.9138 4.36538 25.1341 4.63994 25.1341H8.78552C9.06009 25.1341 9.28242 24.9135 9.28242 24.6416V14.6212H12.9975C13.2721 14.6212 13.4944 14.4008 13.4944 14.1287L13.496 10.1576C13.496 10.0269 13.4435 9.90175 13.3504 9.80928C13.2574 9.71681 13.1306 9.66479 12.9988 9.66479H9.28242V7.34137C9.28242 6.22464 9.5509 5.65774 11.0185 5.65774L13.1474 5.65698C13.4217 5.65698 13.644 5.43635 13.644 5.16446V1.47704C13.644 1.2054 13.4219 0.985021 13.1479 0.984518Z" fill="#273583"/>
</svg>
