<svg width="215" height="45" viewBox="0 0 215 45" fill="none" xmlns="http://www.w3.org/2000/svg">
<path d="M115.413 6.8418H117.792V12.077C118.09 12.1365 118.387 12.1365 118.685 12.1365C120.588 12.1365 121.838 10.9467 121.838 8.7455C121.838 8.1506 121.838 7.37721 121.778 6.8418H124.158C124.217 7.43671 124.217 8.1506 124.217 8.68601C124.217 11.1251 123.206 12.9694 121.243 13.7427L124.872 19.3349H121.957L118.744 14.2782C118.625 14.2782 118.566 14.2782 118.447 14.2782C118.209 14.2782 118.03 14.2782 117.792 14.2187V19.3349H115.413V6.8418Z" fill="white"/>
<path d="M130.88 10.709V12.7317H129.036V19.2757H126.716V10.709H130.88Z" fill="white"/>
<path d="M136.591 10.4111C137.9 10.4111 138.911 11.006 139.387 11.7794H139.447C139.447 11.6604 139.387 11.482 139.387 11.006V10.7086H141.529V19.3348H139.387V18.9183C139.387 18.5614 139.387 18.3234 139.447 18.1449H139.387C138.911 19.0373 137.84 19.6322 136.531 19.6322C134.092 19.6322 132.367 17.7285 132.367 15.0514C132.367 12.3743 134.092 10.4111 136.591 10.4111ZM139.328 14.9919C139.328 13.5047 138.316 12.4933 137.007 12.4933C135.639 12.4933 134.687 13.5047 134.687 14.9919C134.687 16.4792 135.639 17.55 137.007 17.55C138.316 17.4905 139.328 16.4792 139.328 14.9919Z" fill="white"/>
<path d="M142.659 23.1423V21.1196H144.384V10.7087H146.704V23.1423H142.659ZM144.146 8.21009C144.146 7.43671 144.741 6.8418 145.515 6.8418C146.288 6.8418 146.883 7.43671 146.883 8.21009C146.883 8.98347 146.288 9.57838 145.515 9.57838C144.741 9.57838 144.146 8.98347 144.146 8.21009Z" fill="white"/>
<path d="M148.906 14.9919C148.906 12.3148 150.809 10.4111 153.486 10.4111C156.164 10.4111 158.127 12.3148 158.127 14.9919C158.127 17.6095 156.164 19.5727 153.486 19.5727C150.809 19.5727 148.906 17.669 148.906 14.9919ZM155.747 14.9919C155.747 13.5047 154.855 12.4933 153.486 12.4933C152.118 12.4933 151.226 13.5047 151.226 14.9919C151.226 16.4792 152.178 17.55 153.486 17.55C154.855 17.4905 155.747 16.4792 155.747 14.9919Z" fill="white"/>
<path d="M170.322 19.3352H167.11L165.861 12.7317H165.801L164.492 19.3352H161.339L159.495 10.709H161.756L162.886 17.3125H162.945L164.135 10.709H167.586L168.776 17.3125H168.835L169.965 10.709H172.226L170.322 19.3352Z" fill="white"/>
<path d="M175.022 21.1199H179.067V19.3947C179.067 19.0377 179.067 18.7997 179.127 18.6213H179.067C178.889 18.9187 178.354 19.3352 177.223 19.3352C175.438 19.3352 174.13 17.9074 174.13 15.9442V10.709H176.45V16.0037C176.45 16.7771 177.045 17.3125 177.818 17.3125C178.592 17.3125 179.127 16.7771 179.127 16.0037V10.709H181.447V23.1426H175.082V21.1199H175.022Z" fill="white"/>
<path d="M115.412 23.9155H117.792V36.4086H115.412V23.9155Z" fill="white"/>
<path d="M127.965 27.7827V36.4089H125.645V29.7459H122.968V36.3494H120.647V27.7827H127.965Z" fill="white"/>
<path d="M133.557 30.9353L134.628 31.4708C135.58 31.9467 136.472 32.6011 136.472 33.9694C136.472 35.5161 135.282 36.6465 133.259 36.6465C131.356 36.6465 130.404 35.5756 130.106 34.4453L131.832 33.4934C132.01 34.0289 132.427 34.7428 133.319 34.7428C133.854 34.7428 134.211 34.4453 134.211 33.9694C134.211 33.6124 133.973 33.3745 133.259 33.077L132.367 32.6011C131.415 32.1252 130.523 31.5897 130.523 30.043C130.523 28.6747 131.772 27.4849 133.438 27.4849C135.163 27.4849 136.056 28.3772 136.591 29.3886L134.985 30.3404C134.687 29.7455 134.211 29.3291 133.497 29.3291C133.021 29.3291 132.665 29.567 132.665 29.9835C132.605 30.3999 132.843 30.5784 133.557 30.9353Z" fill="white"/>
<path d="M139.03 29.7459H138.197V27.7232H139.03V25.5815H141.35V27.7827H143.373V29.7459H141.35V34.3267H143.076V36.3494H138.971V29.7459H139.03Z" fill="white"/>
<path d="M146.348 38.1935H150.393V36.4683C150.393 36.1114 150.393 35.8734 150.452 35.6949H150.393C150.214 35.9924 149.679 36.4088 148.549 36.4088C146.764 36.4088 145.455 34.981 145.455 33.0178V27.7231H147.775V33.0178C147.775 33.7912 148.37 34.3266 149.144 34.3266C149.917 34.3266 150.452 33.7912 150.452 33.0178V27.7231H152.773V40.1567H146.348V38.1935Z" fill="white"/>
<path d="M155.807 29.7459H154.974V27.7232H155.807V25.5815H158.127V27.7827H160.149V29.7459H158.127V34.3267H159.852V36.3494H155.747V29.7459H155.807Z" fill="white"/>
<path d="M162.232 36.3494V27.7827H164.552V34.3862H167.169V27.7827H169.489V36.4089H162.232V36.3494Z" fill="white"/>
<path d="M172.583 29.7459H171.75V27.7232H172.583V25.5815H174.903V27.7827H176.926V29.7459H174.903V34.3267H176.628V36.3494H172.523V29.7459H172.583Z" fill="white"/>
<path d="M183.291 30.1622C183.291 26.3548 185.909 23.6777 189.657 23.6777C193.405 23.6777 196.022 26.4143 196.022 30.1622C196.022 33.9102 193.405 36.6467 189.657 36.6467C185.849 36.6467 183.291 33.9102 183.291 30.1622ZM193.583 30.1027C193.583 27.5446 192.037 25.7004 189.657 25.7004C187.277 25.7004 185.731 27.4851 185.731 30.1027C185.731 32.7203 187.277 34.5051 189.657 34.5051C192.037 34.5051 193.583 32.7203 193.583 30.1027Z" fill="white"/>
<path d="M197.212 23.9155H205.66L200.425 34.3264H205.422V36.4086H196.915L202.209 25.9977H197.212V23.9155Z" fill="white"/>
<path d="M207.623 23.9155H214.94V25.9977H210.003V29.0912H214.583V31.1139H210.003V34.3264H215V36.4086H207.623V23.9155Z" fill="white"/>
<path d="M38.6096 22.1306C38.6096 14.4563 32.363 8.26923 24.7482 8.26923C17.0739 8.26923 10.8868 14.5158 10.8868 22.1306C10.8868 29.7454 17.1334 35.992 24.7482 35.992C32.363 36.0515 38.6096 29.8049 38.6096 22.1306ZM24.6887 32.6605C18.9181 32.6605 14.1588 27.9607 14.1588 22.1306C14.1588 16.3005 18.8586 11.6007 24.6887 11.6007C30.4593 11.6007 35.2186 16.3005 35.2186 22.1306C35.2186 27.9607 30.5188 32.6605 24.6887 32.6605ZM0 20.4649H6.90094V23.8558H0V20.4649ZM14.4563 36.5274L17.3713 38.1931L13.9209 44.2017L11.0058 42.536L14.4563 36.5274ZM34.9806 7.67432L32.0656 6.00858L35.5755 0L38.4906 1.66574L34.9806 7.67432ZM34.9806 36.5274L38.4311 42.536L35.5161 44.2017L32.0656 38.1931L34.9806 36.5274ZM14.3968 7.67432L10.9463 1.66574L13.8614 0L17.3118 6.00858L14.3968 7.67432Z" fill="#FF8455"/>
<path d="M73.4712 8.20996H45.0346V11.6009H53.3633L42.8334 35.9922H71.2701V32.6012H62.9414L73.4712 8.20996ZM48.0091 32.6607L57.0518 11.6009H68.355L59.2529 32.6607H48.0091Z" fill="#59E190"/>
<path d="M98.5169 13.8614C96.0183 13.8614 93.6386 13.2665 91.4375 12.6715C87.4516 11.6602 84.0011 10.7678 80.1937 12.9095L78.528 9.99446C83.5252 7.19839 88.1655 8.38821 92.2703 9.39955C96.2562 10.4109 99.7067 11.3033 103.514 9.16159L105.18 12.0766C102.919 13.3854 100.659 13.8614 98.5169 13.8614ZM105.239 23.2014L103.574 20.2864C99.7662 22.4281 96.3157 21.5357 92.3298 20.5243C88.225 19.4535 83.5847 18.2637 78.5874 21.1193L80.2532 24.0343C84.0606 21.8926 87.5111 22.785 91.497 23.7963C93.6981 24.3912 96.0778 24.9862 98.5764 24.9862C100.659 24.9267 102.919 24.4507 105.239 23.2014ZM105.239 34.2667L103.574 31.3517C99.7662 33.4934 96.3157 32.601 92.3298 31.5896C88.225 30.5188 83.5847 29.329 78.5874 32.1846L80.2532 35.0996C84.0606 32.9579 87.5111 33.8503 91.497 34.8616C93.6981 35.4566 96.0778 36.0515 98.5764 36.0515C100.659 35.992 102.919 35.5755 105.239 34.2667Z" fill="#3374FF"/>
</svg>
