<svg width="161" height="106" viewBox="0 0 161 106" fill="none" xmlns="http://www.w3.org/2000/svg">
<path d="M0.276611 87.9889H2.02809V87.1131C2.02809 86.0991 2.12027 85.3617 2.35073 84.9007C2.58119 84.4398 2.94992 84.025 3.50302 83.7024C4.05612 83.3797 4.79359 83.2415 5.66933 83.2415C6.54507 83.2415 7.42081 83.3797 8.29655 83.6563L7.88172 85.8226C7.37471 85.6843 6.9138 85.6382 6.45288 85.6382C5.99197 85.6382 5.66933 85.7304 5.48496 85.9609C5.30059 86.1913 5.20841 86.56 5.20841 87.1592V87.9889H7.55908V90.4317H5.20841V99.7883H1.982V90.4317H0.276611V87.9889Z" fill="#3136A0"/>
<path d="M8.15857 93.7042C8.15857 92.6902 8.43512 91.6762 8.94213 90.7082C9.44913 89.7403 10.1866 89.0028 11.1084 88.4958C12.0303 87.9888 13.0904 87.7123 14.2427 87.7123C16.0402 87.7123 17.4691 88.3115 18.6214 89.4638C19.7736 90.6161 20.3267 92.091 20.3267 93.8425C20.3267 95.64 19.7736 97.115 18.6214 98.2672C17.4691 99.4195 16.0402 100.019 14.2887 100.019C13.2286 100.019 12.1685 99.7883 11.2006 99.2813C10.2327 98.7743 9.49522 98.0829 8.94213 97.115C8.43512 96.1931 8.15857 95.0408 8.15857 93.7042ZM11.385 93.8885C11.385 95.0408 11.6615 95.9627 12.2146 96.5619C12.7677 97.1611 13.4591 97.4837 14.2887 97.4837C15.1184 97.4837 15.7637 97.1611 16.3168 96.5619C16.8699 95.9627 17.1464 95.0408 17.1464 93.8425C17.1464 92.6902 16.8699 91.8144 16.3168 91.1691C15.7637 90.57 15.0723 90.2473 14.2887 90.2473C13.4591 90.2473 12.7677 90.57 12.2146 91.1691C11.6615 91.8144 11.385 92.6902 11.385 93.8885Z" fill="#3136A0"/>
<path d="M27.8857 87.9889V90.4779H25.7655V95.2253C25.7655 96.1932 25.7655 96.7463 25.8116 96.8846C25.8576 97.0229 25.9498 97.1612 26.0881 97.2994C26.2264 97.3916 26.4107 97.4377 26.5951 97.4377C26.8717 97.4377 27.2865 97.3455 27.8396 97.1151L28.1161 99.5579C27.3787 99.8806 26.549 100.019 25.6733 100.019C25.1202 100.019 24.6132 99.9267 24.1523 99.7423C23.6913 99.5579 23.3687 99.3275 23.1382 99.0048C22.9078 98.7283 22.7695 98.3135 22.6773 97.8064C22.6312 97.4377 22.5851 96.7002 22.5851 95.5941V90.4779H21.2024V87.9889H22.6312V85.6383L25.7655 83.8407V87.9889H27.8857Z" fill="#3136A0"/>
<path d="M28.9918 93.7042C28.9918 92.6902 29.2684 91.6762 29.7754 90.7082C30.2824 89.7403 31.0199 89.0028 31.9417 88.4958C32.8635 87.9888 33.9236 87.7123 35.0759 87.7123C36.8735 87.7123 38.3023 88.3115 39.4546 89.4638C40.6069 90.6161 41.16 92.091 41.16 93.8425C41.16 95.64 40.6069 97.115 39.4546 98.2672C38.3023 99.4195 36.8735 100.019 35.122 100.019C34.0619 100.019 33.0018 99.7883 32.0339 99.2813C31.0659 98.7743 30.3285 98.0829 29.7754 97.115C29.2684 96.1931 28.9918 95.0408 28.9918 93.7042ZM32.2182 93.8885C32.2182 95.0408 32.4948 95.9627 33.0479 96.5619C33.601 97.1611 34.2924 97.4837 35.122 97.4837C35.9516 97.4837 36.5969 97.1611 37.15 96.5619C37.7031 95.9627 37.9797 95.0408 37.9797 93.8425C37.9797 92.6902 37.7031 91.8144 37.15 91.1691C36.5969 90.57 35.9056 90.2473 35.122 90.2473C34.2924 90.2473 33.601 90.57 33.0479 91.1691C32.4948 91.8144 32.2182 92.6902 32.2182 93.8885Z" fill="#3136A0"/>
<path d="M45.3084 99.7883L41.575 87.9889H44.617L46.8294 95.7323L48.8574 87.9889H51.8534L53.8353 95.7323L56.0938 87.9889H59.1819L55.4024 99.7883H52.4065L50.3784 92.2293L48.3965 99.7883H45.3084Z" fill="#3136A0"/>
<path d="M59.5045 93.7042C59.5045 92.6902 59.7811 91.6762 60.2881 90.7082C60.7951 89.7403 61.5325 89.0028 62.4544 88.4958C63.3762 87.9888 64.4363 87.7123 65.5886 87.7123C67.3862 87.7123 68.815 88.3115 69.9673 89.4638C71.1196 90.6161 71.6727 92.091 71.6727 93.8425C71.6727 95.64 71.1196 97.115 69.9673 98.2672C68.815 99.4195 67.3862 100.019 65.6347 100.019C64.5746 100.019 63.5145 99.7883 62.5466 99.2813C61.5786 98.7743 60.8412 98.0829 60.2881 97.115C59.7811 96.1931 59.5045 95.0408 59.5045 93.7042ZM62.6848 93.8885C62.6848 95.0408 62.9614 95.9627 63.5145 96.5619C64.0676 97.1611 64.759 97.4837 65.5886 97.4837C66.4183 97.4837 67.0635 97.1611 67.6166 96.5619C68.1697 95.9627 68.4463 95.0408 68.4463 93.8425C68.4463 92.6902 68.1697 91.8144 67.6166 91.1691C67.0635 90.57 66.3722 90.2473 65.5886 90.2473C64.759 90.2473 64.0676 90.57 63.5145 91.1691C63.0075 91.8144 62.6848 92.6902 62.6848 93.8885Z" fill="#3136A0"/>
<path d="M73.839 99.7884V83.5181H76.9732V99.7884H73.839Z" fill="#3136A0"/>
<path d="M85.4542 87.9889V90.4778H83.334V95.2253C83.334 96.1932 83.334 96.7463 83.3801 96.8846C83.4262 97.0228 83.5184 97.1611 83.6567 97.2994C83.7949 97.3916 83.9793 97.4377 84.1637 97.4377C84.4402 97.4377 84.855 97.3455 85.4081 97.115L85.6847 99.5118C84.9472 99.8344 84.1176 99.9727 83.2418 99.9727C82.6887 99.9727 82.1817 99.8805 81.7208 99.6961C81.2599 99.5118 80.9373 99.2813 80.7068 98.9587C80.4763 98.6821 80.3381 98.2673 80.2459 97.7603C80.1998 97.3916 80.1537 96.6541 80.1537 95.5479V90.4317H78.7249V87.9428H80.1537V85.5921L83.2879 83.7946V87.9428H85.4542V87.9889Z" fill="#3136A0"/>
<path d="M89.8789 91.584L87.0673 91.077C87.3899 89.9247 87.943 89.095 88.7266 88.5419C89.5101 87.9888 90.6624 87.7123 92.1834 87.7123C93.5662 87.7123 94.6263 87.8966 95.2716 88.2193C95.9629 88.5419 96.4239 88.9568 96.7004 89.4638C96.977 89.9708 97.1152 90.8926 97.1152 92.2753L97.0691 95.9166C97.0691 96.9306 97.1152 97.7142 97.2074 98.2212C97.2996 98.7282 97.484 99.2352 97.7605 99.7883H94.6724C94.5802 99.6039 94.488 99.2813 94.3958 98.8664C94.3497 98.6821 94.3037 98.5438 94.3037 98.4977C93.7506 99.0047 93.1974 99.4195 92.5983 99.65C91.9991 99.9265 91.3538 100.019 90.6624 100.019C89.464 100.019 88.4961 99.6961 87.8047 99.0508C87.1134 98.4055 86.7446 97.5759 86.7446 96.5619C86.7446 95.9166 86.8829 95.3174 87.2055 94.7643C87.5282 94.2573 87.9891 93.8425 88.5422 93.5659C89.0953 93.2894 89.9249 93.0589 91.0311 92.8284C92.5061 92.5519 93.5201 92.3214 94.0732 92.0449V91.7222C94.0732 91.1231 93.9349 90.7082 93.6123 90.4317C93.2896 90.1551 92.7365 90.0629 91.953 90.0629C91.3999 90.0629 90.9851 90.1551 90.6624 90.3856C90.3398 90.6621 90.1093 91.0309 89.8789 91.584ZM94.0732 94.119C93.6584 94.2573 93.0592 94.3956 92.1834 94.5799C91.3077 94.7643 90.7546 94.9487 90.478 95.133C90.0632 95.4096 89.8789 95.7783 89.8789 96.2392C89.8789 96.654 90.0632 97.0689 90.3859 97.3915C90.7085 97.7142 91.1233 97.8524 91.6303 97.8524C92.1834 97.8524 92.7365 97.6681 93.2435 97.2993C93.6123 97.0228 93.8888 96.654 93.981 96.2853C94.0732 96.0088 94.1193 95.5018 94.1193 94.7643V94.119H94.0732Z" fill="#3136A0"/>
<path d="M99.9269 86.3757V83.4719H103.061V86.3757H99.9269ZM99.9269 99.7883V87.9889H103.061V99.7883H99.9269Z" fill="#3136A0"/>
<path d="M105.827 99.7884V83.5181H108.961V92.1372L112.602 87.9889H116.428L112.418 92.2755L116.75 99.7423H113.386L110.436 94.4418L108.961 95.9628V99.7423H105.827V99.7884Z" fill="#3136A0"/>
<path d="M118.271 86.3757V83.4719H121.405V86.3757H118.271ZM118.271 99.7883V87.9889H121.405V99.7883H118.271Z" fill="#3136A0"/>
<path d="M124.263 99.7884V96.6542H127.397V99.7884H124.263Z" fill="#3136A0"/>
<path d="M130.209 87.9889H133.113V89.7404C133.481 89.1412 133.988 88.6803 134.634 88.3115C135.279 87.9428 135.97 87.7584 136.754 87.7584C138.137 87.7584 139.289 88.3115 140.257 89.3716C141.225 90.4317 141.686 91.9528 141.686 93.8425C141.686 95.8245 141.225 97.3455 140.257 98.4517C139.289 99.5579 138.137 100.111 136.754 100.111C136.109 100.111 135.51 99.9727 135.003 99.7422C134.495 99.4657 133.896 99.0509 133.343 98.4056V105.872H130.209V87.9889ZM133.297 93.6581C133.297 94.9948 133.574 95.9627 134.081 96.608C134.588 97.2533 135.233 97.5759 136.017 97.5759C136.754 97.5759 137.353 97.2994 137.814 96.7002C138.275 96.101 138.552 95.1792 138.552 93.8425C138.552 92.598 138.321 91.6762 137.814 91.077C137.307 90.4778 136.708 90.1552 135.97 90.1552C135.187 90.1552 134.588 90.4317 134.081 91.0309C133.528 91.6301 133.297 92.5059 133.297 93.6581Z" fill="#3136A0"/>
<path d="M143.99 99.7884V83.5181H147.124V99.7884H143.99Z" fill="#3136A0"/>
<path d="M124.54 19.4967L127.259 16.6391L123.387 15.9016C119.884 15.2563 117.534 11.9838 117.995 8.48085L118.502 4.56307L114.952 6.26845C111.772 7.78948 107.9 6.545 106.195 3.41078L104.351 0L102.462 3.45687C100.756 6.5911 96.9307 7.83557 93.7043 6.31455L90.1552 4.60916L90.6622 8.52694C91.1231 12.0299 88.7725 15.3024 85.2695 15.9477L81.3978 16.6852L84.1172 19.5428C86.5601 22.124 86.5601 26.18 84.1172 28.7151L81.3978 31.5727L85.2695 32.2641C88.7725 32.9094 91.1231 36.1819 90.6622 39.6848L90.1552 43.6026L93.7043 41.8972C96.8846 40.3762 100.756 41.6207 102.462 44.7549L104.351 48.2118L106.241 44.7549C107.947 41.6207 111.772 40.3762 114.999 41.8972L118.548 43.6026L118.041 39.6848C117.58 36.1819 119.93 32.9094 123.433 32.2641L127.305 31.5266L124.586 28.669C122.097 26.1339 122.097 22.0779 124.54 19.4967Z" fill="#FCD34F"/>
<path d="M104.351 39.8231C113.032 39.8231 120.069 32.7863 120.069 24.1059C120.069 15.4255 113.032 8.38867 104.351 8.38867C95.671 8.38867 88.6342 15.4255 88.6342 24.1059C88.6342 32.7863 95.671 39.8231 104.351 39.8231Z" fill="#FFEFB0"/>
<path d="M160.814 34.2H103.245L85.8226 75.2676H143.391L160.814 34.2Z" fill="#0097E7"/>
<path d="M103.017 34.1499L85.7378 74.8845L86.1621 75.0645L103.441 34.3299L103.017 34.1499Z" fill="white"/>
<path d="M114.532 34.1387L97.2533 74.8733L97.6776 75.0533L114.956 34.3186L114.532 34.1387Z" fill="white"/>
<path d="M126.047 34.1273L108.769 74.8619L109.193 75.0419L126.472 34.3073L126.047 34.1273Z" fill="white"/>
<path d="M137.563 34.1161L120.284 74.8507L120.708 75.0307L137.987 34.2961L137.563 34.1161Z" fill="white"/>
<path d="M149.06 34.1472L131.781 74.8818L132.206 75.0618L149.485 34.3272L149.06 34.1472Z" fill="white"/>
<path d="M160.576 34.1359L143.297 74.8705L143.721 75.0505L161 34.3158L160.576 34.1359Z" fill="white"/>
<path d="M160.813 33.9695H103.245V34.4304H160.813V33.9695Z" fill="white"/>
<path d="M154.96 47.7509H97.3914V48.2118H154.96V47.7509Z" fill="white"/>
<path d="M149.152 61.5322H91.5839V61.9931H149.152V61.5322Z" fill="white"/>
<path d="M143.391 74.8066H85.8224V75.2676H143.391V74.8066Z" fill="white"/>
<path d="M108.361 49.2258L107.67 47.9352L109.467 46.7368L110.159 47.9813L108.361 49.2258Z" fill="white"/>
<path d="M102.508 63.0072L101.816 61.7166L103.66 60.4722L104.351 61.7627L102.508 63.0072Z" fill="white"/>
<path d="M119.884 49.2258L119.193 47.9352L120.99 46.7368L121.682 47.9813L119.884 49.2258Z" fill="white"/>
<path d="M114.03 63.0072L113.339 61.7166L115.137 60.4722L115.828 61.7627L114.03 63.0072Z" fill="white"/>
<path d="M131.407 49.2258L130.67 47.9352L132.513 46.7368L133.205 47.9813L131.407 49.2258Z" fill="white"/>
<path d="M125.553 63.0072L124.862 61.7166L126.66 60.4722L127.351 61.7627L125.553 63.0072Z" fill="white"/>
<path d="M142.884 49.2258L142.193 47.9352L144.036 46.7368L144.728 47.9813L142.884 49.2258Z" fill="white"/>
<path d="M137.03 63.0072L136.339 61.7166L138.183 60.4722L138.874 61.7627L137.03 63.0072Z" fill="white"/>
<path d="M26.4566 31.2501V75.498H14.9337V56.9231H11.5229V75.498H0V31.2501H11.5229V47.0595H14.9798V31.2501H26.4566ZM41.2059 39.2701V75.5441H29.8212V39.2701H41.2059ZM56.5544 34.4304V40.1458H59.5503V45.9072H56.5544V65.3118C56.5544 67.7086 56.6926 69.0452 56.9231 69.3218C57.1536 69.5983 58.2137 69.7366 60.0112 69.7366V75.5902H55.5404C53.0053 75.5902 51.2077 75.498 50.1476 75.2676C49.0875 75.0371 48.1196 74.5762 47.29 73.8387C46.4603 73.1013 45.9533 72.2255 45.7689 71.2576C45.5846 70.2897 45.4463 67.9851 45.4463 64.39V45.9533H43.0495V40.1458H45.4463V34.4304H56.5544ZM85.9147 39.2701L82.7805 65.4962C82.2735 69.6444 81.8586 72.5021 81.536 73.977C81.2134 75.498 80.6603 76.7425 79.8767 77.7104C79.0931 78.6784 77.9869 79.4158 76.6042 79.8767C75.2215 80.3377 72.963 80.5681 69.9209 80.5681H63.2376V74.7606C64.943 74.7606 66.0492 74.6684 66.5562 74.484C67.0632 74.2997 67.2937 73.9309 67.2937 73.3317C67.2937 73.0552 67.0632 71.7646 66.6023 69.5522L60.5643 39.224H70.5201L74.1613 63.6986L75.9128 39.224H85.9147V39.2701Z" fill="#0097E7"/>
<path d="M127.351 102.738H0V105.78H127.351V102.738Z" fill="#35BF35"/>
<path d="M147.124 102.738H135.602V105.78H147.124V102.738Z" fill="#35BF35"/>
<path d="M30.9274 37.4724C30.9735 37.1959 31.0196 36.8733 31.0657 36.5967C31.3423 35.26 31.8032 33.9234 32.4946 32.725C32.8633 32.0797 33.3242 31.5727 33.9234 31.1118C36.8733 28.9916 39.0396 26.2261 40.6067 22.9997C41.0676 22.0779 41.3902 21.156 41.759 20.1881C41.8051 20.0959 41.8051 20.0498 41.8051 19.9576C41.5285 20.5107 41.298 21.0638 41.0215 21.6169C40.0997 23.4606 38.9013 25.166 37.5185 26.7331C36.228 28.208 34.753 29.4986 33.1859 30.6509C32.3563 31.2501 31.7571 32.0336 31.204 32.9094C31.1579 32.9555 31.1118 33.0016 31.0657 33.1398C30.9274 32.9555 30.8353 32.7711 30.7431 32.5867C29.8212 30.7892 29.4064 28.8533 29.5447 26.8253C29.683 25.0277 30.3743 23.4145 31.4344 21.9396C32.725 20.2803 34.3382 19.0358 36.1819 18.0679C37.2881 17.5148 38.4404 17.0078 39.5927 16.5469C41.1598 15.9477 42.4964 15.0719 43.7409 13.9657C43.787 13.9196 43.8792 13.8736 43.9253 13.8275C43.9253 13.8275 43.9714 13.8275 44.0174 13.7814C44.2018 14.104 44.3862 14.3806 44.5705 14.7032C45.5385 16.5008 46.1838 18.3905 46.4142 20.3725C46.6908 22.4005 46.6908 24.4746 45.9072 26.4566C44.801 29.3603 43.0034 31.6188 40.1458 32.9094C38.9935 33.4164 37.7951 33.739 36.5045 33.8312C35.5827 33.8773 34.6609 33.8312 33.739 33.7851C33.6008 33.7851 33.5547 33.8312 33.4625 33.9234C32.9555 34.7991 32.6328 35.721 32.4485 36.6889C32.4024 36.9193 32.3102 37.0115 32.0797 37.1037C31.711 37.242 31.3423 37.3803 30.9274 37.5646C30.9274 37.4724 30.9274 37.4724 30.9274 37.4724Z" fill="#35BF35"/>
</svg>
