<svg width="183" height="120" viewBox="0 0 183 120" fill="none" xmlns="http://www.w3.org/2000/svg">
<path d="M0.312744 99.4808H2.29298V98.4906C2.29298 97.3442 2.3972 96.5104 2.65776 95.9893C2.91832 95.4682 3.33521 94.9992 3.96055 94.6344C4.58588 94.2696 5.41967 94.1133 6.40978 94.1133C7.3999 94.1133 8.39002 94.2696 9.38014 94.5823L8.91113 97.0315C8.33791 96.8752 7.81679 96.8231 7.29568 96.8231C6.77456 96.8231 6.40978 96.9273 6.20134 97.1879C5.99289 97.4484 5.88867 97.8653 5.88867 98.5428V99.4808H8.54635V102.243H5.88867V112.821H2.24087V102.243H0.312744V99.4808Z" fill="white"/>
<path d="M9.22412 105.942C9.22412 104.796 9.53679 103.65 10.11 102.555C10.6832 101.461 11.517 100.627 12.5593 100.054C13.6015 99.4806 14.8 99.168 16.1028 99.168C18.1352 99.168 19.7506 99.8454 21.0534 101.148C22.3562 102.451 22.9815 104.119 22.9815 106.099C22.9815 108.131 22.3562 109.799 21.0534 111.101C19.7506 112.404 18.1352 113.082 16.1549 113.082C14.9564 113.082 13.7578 112.821 12.6635 112.248C11.5691 111.675 10.7354 110.893 10.11 109.799C9.53679 108.756 9.22412 107.454 9.22412 105.942ZM12.8719 106.151C12.8719 107.454 13.1846 108.496 13.8099 109.173C14.4353 109.851 15.2169 110.216 16.1549 110.216C17.0929 110.216 17.8225 109.851 18.4478 109.173C19.0732 108.496 19.3859 107.454 19.3859 106.099C19.3859 104.796 19.0732 103.806 18.4478 103.076C17.8225 102.399 17.0408 102.034 16.1549 102.034C15.2169 102.034 14.4353 102.399 13.8099 103.076C13.1846 103.806 12.8719 104.796 12.8719 106.151Z" fill="white"/>
<path d="M31.5277 99.4808V102.295H29.1306V107.662C29.1306 108.757 29.1306 109.382 29.1827 109.538C29.2348 109.695 29.339 109.851 29.4954 110.007C29.6517 110.112 29.8602 110.164 30.0686 110.164C30.3813 110.164 30.8503 110.059 31.4756 109.799L31.7883 112.561C30.9545 112.926 30.0165 113.082 29.0264 113.082C28.401 113.082 27.8278 112.978 27.3067 112.769C26.7856 112.561 26.4208 112.3 26.1602 111.935C25.8997 111.623 25.7433 111.154 25.6391 110.581C25.587 110.164 25.5349 109.33 25.5349 108.079V102.295H23.9716V99.4808H25.587V96.8231L29.1306 94.7908V99.4808H31.5277Z" fill="white"/>
<path d="M32.7783 105.942C32.7783 104.796 33.091 103.65 33.6642 102.555C34.2374 101.461 35.0712 100.627 36.1135 100.054C37.1557 99.4806 38.3542 99.168 39.657 99.168C41.6894 99.168 43.3048 99.8454 44.6076 101.148C45.9104 102.451 46.5357 104.119 46.5357 106.099C46.5357 108.131 45.9104 109.799 44.6076 111.101C43.3048 112.404 41.6894 113.082 39.7091 113.082C38.5106 113.082 37.312 112.821 36.2177 112.248C35.1233 111.675 34.2896 110.893 33.6642 109.799C33.091 108.756 32.7783 107.454 32.7783 105.942ZM36.4261 106.151C36.4261 107.454 36.7388 108.496 37.3641 109.173C37.9895 109.851 38.7711 110.216 39.7091 110.216C40.6471 110.216 41.3767 109.851 42.002 109.173C42.6274 108.496 42.9401 107.454 42.9401 106.099C42.9401 104.796 42.6274 103.806 42.002 103.076C41.3767 102.399 40.595 102.034 39.7091 102.034C38.7711 102.034 37.9895 102.399 37.3641 103.076C36.7388 103.806 36.4261 104.796 36.4261 106.151Z" fill="white"/>
<path d="M51.2259 112.821L47.0049 99.4807H50.4442L52.9456 108.235L55.2385 99.4807H58.6257L60.8665 108.235L63.42 99.4807H66.9115L62.6383 112.821H59.2511L56.9582 104.275L54.7174 112.821H51.2259Z" fill="white"/>
<path d="M67.2761 105.942C67.2761 104.796 67.5888 103.65 68.162 102.555C68.7352 101.461 69.569 100.627 70.6113 100.054C71.6535 99.4806 72.852 99.168 74.1548 99.168C76.1872 99.168 77.8026 99.8454 79.1054 101.148C80.4082 102.451 81.0335 104.119 81.0335 106.099C81.0335 108.131 80.4082 109.799 79.1054 111.101C77.8026 112.404 76.1872 113.082 74.2069 113.082C73.0084 113.082 71.8098 112.821 70.7155 112.248C69.6211 111.675 68.7874 110.893 68.162 109.799C67.5888 108.756 67.2761 107.454 67.2761 105.942ZM70.8718 106.151C70.8718 107.454 71.1845 108.496 71.8098 109.173C72.4352 109.851 73.2168 110.216 74.1548 110.216C75.0928 110.216 75.8224 109.851 76.4477 109.173C77.0731 108.496 77.3857 107.454 77.3857 106.099C77.3857 104.796 77.0731 103.806 76.4477 103.076C75.8224 102.399 75.0407 102.034 74.1548 102.034C73.2168 102.034 72.4352 102.399 71.8098 103.076C71.2366 103.806 70.8718 104.796 70.8718 106.151Z" fill="white"/>
<path d="M83.4829 112.821V94.426H87.0265V112.821H83.4829Z" fill="white"/>
<path d="M96.615 99.4807V102.295H94.2179V107.662C94.2179 108.757 94.2179 109.382 94.27 109.538C94.3221 109.695 94.4263 109.851 94.5826 110.007C94.739 110.111 94.9474 110.164 95.1559 110.164C95.4685 110.164 95.9375 110.059 96.5629 109.799L96.8755 112.509C96.0418 112.873 95.1038 113.03 94.1136 113.03C93.4883 113.03 92.9151 112.925 92.394 112.717C91.8728 112.509 91.5081 112.248 91.2475 111.883C90.987 111.571 90.8306 111.102 90.7264 110.528C90.6743 110.111 90.6222 109.278 90.6222 108.027V102.243H89.0067V99.4286H90.6222V96.7709L94.1657 94.7385V99.4286H96.615V99.4807Z" fill="white"/>
<path d="M101.618 103.545L98.4389 102.972C98.8037 101.669 99.429 100.731 100.315 100.106C101.201 99.4806 102.504 99.168 104.223 99.168C105.787 99.168 106.985 99.3764 107.715 99.7412C108.496 100.106 109.018 100.575 109.33 101.148C109.643 101.721 109.799 102.764 109.799 104.327L109.747 108.444C109.747 109.59 109.799 110.476 109.903 111.049C110.008 111.623 110.216 112.196 110.529 112.821H107.037C106.933 112.613 106.829 112.248 106.725 111.779C106.672 111.57 106.62 111.414 106.62 111.362C105.995 111.935 105.37 112.404 104.692 112.665C104.015 112.977 103.285 113.082 102.504 113.082C101.149 113.082 100.054 112.717 99.2727 111.987C98.491 111.258 98.0741 110.32 98.0741 109.173C98.0741 108.444 98.2304 107.766 98.5952 107.141C98.96 106.568 99.4811 106.099 100.106 105.786C100.732 105.473 101.67 105.213 102.92 104.952C104.588 104.64 105.734 104.379 106.36 104.066V103.702C106.36 103.024 106.203 102.555 105.839 102.243C105.474 101.93 104.849 101.826 103.963 101.826C103.337 101.826 102.868 101.93 102.504 102.19C102.139 102.503 101.878 102.92 101.618 103.545ZM106.36 106.411C105.891 106.568 105.213 106.724 104.223 106.933C103.233 107.141 102.608 107.349 102.295 107.558C101.826 107.871 101.618 108.287 101.618 108.809C101.618 109.278 101.826 109.747 102.191 110.111C102.556 110.476 103.025 110.632 103.598 110.632C104.223 110.632 104.849 110.424 105.422 110.007C105.839 109.694 106.151 109.278 106.256 108.861C106.36 108.548 106.412 107.975 106.412 107.141V106.411H106.36Z" fill="white"/>
<path d="M112.978 97.6568V94.3738H116.522V97.6568H112.978ZM112.978 112.821V99.4807H116.522V112.821H112.978Z" fill="white"/>
<path d="M119.648 112.821V94.426H123.192V104.171L127.309 99.4808H131.634L127.1 104.327L131.999 112.769H128.194L124.859 106.776L123.192 108.496V112.769H119.648V112.821Z" fill="white"/>
<path d="M133.718 97.6568V94.3738H137.262V97.6568H133.718ZM133.718 112.821V99.4807H137.262V112.821H133.718Z" fill="white"/>
<path d="M140.493 112.821V109.278H144.036V112.821H140.493Z" fill="white"/>
<path d="M147.215 99.4808H150.498V101.461C150.915 100.784 151.488 100.262 152.218 99.8456C152.947 99.4287 153.729 99.2202 154.615 99.2202C156.178 99.2202 157.481 99.8456 158.575 101.044C159.67 102.243 160.191 103.962 160.191 106.099C160.191 108.34 159.67 110.059 158.575 111.31C157.481 112.561 156.178 113.186 154.615 113.186C153.885 113.186 153.208 113.03 152.635 112.769C152.061 112.457 151.384 111.988 150.759 111.258V119.7H147.215V99.4808ZM150.707 105.89C150.707 107.402 151.019 108.496 151.592 109.226C152.166 109.955 152.895 110.32 153.781 110.32C154.615 110.32 155.292 110.007 155.813 109.33C156.335 108.652 156.647 107.61 156.647 106.099C156.647 104.692 156.387 103.65 155.813 102.972C155.24 102.295 154.563 101.93 153.729 101.93C152.843 101.93 152.166 102.243 151.592 102.92C150.967 103.598 150.707 104.588 150.707 105.89Z" fill="white"/>
<path d="M162.796 112.821V94.426H166.34V112.821H162.796Z" fill="white"/>
<path d="M140.805 22.0431L143.88 18.8122L139.502 17.9784C135.542 17.2489 132.884 13.549 133.405 9.58851L133.979 5.15903L129.966 7.08716C126.37 8.80683 121.993 7.39983 120.065 3.85625L117.98 0L115.844 3.90836C113.916 7.45194 109.59 8.85895 105.943 7.13927L101.93 5.21114L102.503 9.64062C103.024 13.6011 100.367 17.301 96.4062 18.0306L92.0288 18.8643L95.1034 22.0953C97.8653 25.0135 97.8653 29.5993 95.1034 32.4654L92.0288 35.6963L96.4062 36.478C100.367 37.2076 103.024 40.9075 102.503 44.868L101.93 49.2974L105.943 47.3693C109.538 45.6496 113.916 47.0566 115.844 50.6002L117.98 54.5086L120.117 50.6002C122.045 47.0566 126.37 45.6496 130.018 47.3693L134.031 49.2974L133.457 44.868C132.936 40.9075 135.594 37.2076 139.554 36.478L143.932 35.6442L140.857 32.4133C138.043 29.5472 138.043 24.9614 140.805 22.0431Z" fill="#FCD34F"/>
<path d="M117.98 45.0244C127.795 45.0244 135.75 37.0685 135.75 27.2544C135.75 17.4403 127.795 9.48438 117.98 9.48438C108.166 9.48438 100.21 17.4403 100.21 27.2544C100.21 37.0685 108.166 45.0244 117.98 45.0244Z" fill="#FFEFB0"/>
<path d="M181.817 38.6667H116.73L97.0319 85.098H162.119L181.817 38.6667Z" fill="#0097E7"/>
<path d="M116.472 38.6099L96.936 84.6648L97.4158 84.8683L116.951 38.8134L116.472 38.6099Z" fill="white"/>
<path d="M129.491 38.5972L109.955 84.6521L110.435 84.8556L129.971 38.8007L129.491 38.5972Z" fill="white"/>
<path d="M142.511 38.5845L122.975 84.6394L123.455 84.8429L142.99 38.788L142.511 38.5845Z" fill="white"/>
<path d="M155.53 38.5718L135.994 84.6267L136.474 84.8302L156.009 38.7753L155.53 38.5718Z" fill="white"/>
<path d="M168.529 38.607L148.993 84.6619L149.473 84.8654L169.009 38.8105L168.529 38.607Z" fill="white"/>
<path d="M181.548 38.5943L162.013 84.6492L162.492 84.8527L182.028 38.7978L181.548 38.5943Z" fill="white"/>
<path d="M181.817 38.4062H116.73V38.9274H181.817V38.4062Z" fill="white"/>
<path d="M175.199 53.9875H110.112V54.5087H175.199V53.9875Z" fill="white"/>
<path d="M168.633 69.5688H103.546V70.09H168.633V69.5688Z" fill="white"/>
<path d="M162.119 84.5769H97.032V85.098H162.119V84.5769Z" fill="white"/>
<path d="M122.514 55.6551L121.733 54.196L123.765 52.8411L124.547 54.2481L122.514 55.6551Z" fill="white"/>
<path d="M115.896 71.2365L115.114 69.7774L117.199 68.3704L117.981 69.8295L115.896 71.2365Z" fill="white"/>
<path d="M135.542 55.6551L134.76 54.196L136.793 52.8411L137.575 54.2481L135.542 55.6551Z" fill="white"/>
<path d="M128.924 71.2365L128.142 69.7774L130.175 68.3704L130.956 69.8295L128.924 71.2365Z" fill="white"/>
<path d="M148.57 55.6551L147.736 54.196L149.821 52.8411L150.602 54.2481L148.57 55.6551Z" fill="white"/>
<path d="M141.952 71.2365L141.17 69.7774L143.202 68.3704L143.984 69.8295L141.952 71.2365Z" fill="white"/>
<path d="M161.546 55.6551L160.764 54.196L162.848 52.8411L163.63 54.2481L161.546 55.6551Z" fill="white"/>
<path d="M154.928 71.2365L154.146 69.7774L156.23 68.3704L157.012 69.8295L154.928 71.2365Z" fill="white"/>
<path d="M29.912 35.3315V85.3585H16.8841V64.3576H13.0279V85.3585H0V35.3315H13.0279V53.2058H16.9362V35.3315H29.912ZM46.5876 44.3989V85.4106H33.7161V44.3989H46.5876ZM63.9407 38.9272V45.389H67.328V51.903H63.9407V73.8419C63.9407 76.5517 64.0971 78.0629 64.3576 78.3756C64.6182 78.6883 65.8168 78.8446 67.8491 78.8446V85.4628H62.7943C59.9282 85.4628 57.8958 85.3585 56.6973 85.098C55.4987 84.8374 54.4044 84.3163 53.4663 83.4825C52.5283 82.6487 51.9551 81.6586 51.7467 80.5643C51.5382 79.4699 51.3819 76.8644 51.3819 72.7997V51.9551H48.6721V45.389H51.3819V38.9272H63.9407ZM97.1357 44.3989L93.5922 74.0504C93.0189 78.7404 92.5499 81.9713 92.1851 83.6389C91.8204 85.3585 91.195 86.7655 90.3091 87.8599C89.4232 88.9542 88.1726 89.788 86.6092 90.3091C85.0459 90.8302 82.4924 91.0908 79.0531 91.0908H71.4969V84.5247C73.425 84.5247 74.6757 84.4205 75.2489 84.2121C75.8222 84.0036 76.0827 83.5867 76.0827 82.9093C76.0827 82.5966 75.8222 81.1375 75.301 78.6362L68.4744 44.3468H79.7305L83.8473 72.018L85.8276 44.3468H97.1357V44.3989Z" fill="#0097E7"/>
<path d="M143.984 116.156H0V119.596H143.984V116.156Z" fill="#35BF35"/>
<path d="M166.34 116.156H153.312V119.596H166.34V116.156Z" fill="#35BF35"/>
<path d="M34.9668 42.3666C35.0189 42.0539 35.071 41.6891 35.1231 41.3765C35.4358 39.8652 35.9569 38.354 36.7386 36.9991C37.1555 36.2695 37.6766 35.6963 38.354 35.1752C41.6892 32.7781 44.1384 29.6514 45.9102 26.0036C46.4313 24.9614 46.7961 23.9191 47.213 22.8248C47.2651 22.7206 47.2651 22.6685 47.2651 22.5642C46.9524 23.1896 46.6919 23.8149 46.3792 24.4402C45.337 26.5247 43.9821 28.4528 42.4187 30.2246C40.9596 31.8922 39.292 33.3513 37.5202 34.6541C36.5822 35.3315 35.9048 36.2174 35.2795 37.2076C35.2273 37.2597 35.1752 37.3118 35.1231 37.4681C34.9668 37.2597 34.8626 37.0512 34.7583 36.8428C33.7161 34.8104 33.2471 32.6217 33.4034 30.3288C33.5598 28.2965 34.3414 26.4726 35.54 24.805C36.9991 22.929 38.823 21.522 40.9075 20.4277C42.1582 19.8023 43.4609 19.2291 44.7637 18.708C46.5355 18.0305 48.0468 17.0404 49.4538 15.7897C49.5059 15.7376 49.6101 15.6855 49.6622 15.6334C49.6622 15.6334 49.7143 15.6334 49.7664 15.5813C49.9749 15.9461 50.1833 16.2587 50.3918 16.6235C51.4861 18.6559 52.2157 20.7924 52.4762 23.0332C52.7889 25.3261 52.7889 27.6712 51.903 29.9119C50.6523 33.195 48.62 35.7484 45.3891 37.2076C44.0863 37.7808 42.7314 38.1456 41.2723 38.2498C40.23 38.3019 39.1878 38.2498 38.1456 38.1977C37.9892 38.1977 37.9371 38.2498 37.8329 38.354C37.2597 39.3441 36.8949 40.3863 36.6865 41.4807C36.6344 41.7412 36.5301 41.8455 36.2696 41.9497C35.8527 42.106 35.4358 42.2624 34.9668 42.4708C34.9668 42.3666 34.9668 42.3666 34.9668 42.3666Z" fill="#35BF35"/>
</svg>
