<svg width="169" height="37" viewBox="0 0 169 37" fill="none" xmlns="http://www.w3.org/2000/svg">
<g clip-path="url(#clip0)">
<path d="M31.3608 21.4322C31.2364 21.4322 31.1534 21.3056 31.1534 21.2213V10.5474C31.1534 10.4208 31.2779 10.3364 31.3608 10.3364H39.5744C39.6988 10.3364 39.8233 10.5052 39.8233 10.5896V12.1928C39.8233 12.3193 39.6573 12.4459 39.5744 12.4459H33.6009V15.2304H38.9107C39.0351 15.2304 39.1595 15.3991 39.1595 15.4835V17.0867C39.1595 17.2133 38.9936 17.3398 38.9107 17.3398H33.6009V21.2213C33.6009 21.3478 33.4764 21.4322 33.3935 21.4322H31.3608Z" fill="#E42313"/>
<path d="M52.7658 15.8632C52.7658 19.3649 50.028 21.601 46.7509 21.601C43.4737 21.601 40.6944 19.3228 40.6944 15.8632C40.6944 12.4459 43.4323 10.1255 46.7509 10.1255C50.0695 10.1255 52.7658 12.4459 52.7658 15.8632ZM43.1834 15.8632C43.1834 18.0993 44.8012 19.4915 46.7509 19.4915C48.7005 19.4915 50.3184 18.0993 50.3184 15.8632C50.3184 13.6272 48.7005 12.235 46.7509 12.235C44.8012 12.235 43.1834 13.6272 43.1834 15.8632Z" fill="#E42313"/>
<path d="M53.5955 12.4459C53.471 12.4459 53.3466 12.2771 53.3466 12.1928V10.5896C53.3466 10.463 53.5125 10.3364 53.5955 10.3364H63.9661C64.0906 10.3364 64.215 10.5052 64.215 10.5896V12.1928C64.215 12.3193 64.0491 12.4459 63.9661 12.4459H60.0253V21.2213C60.0253 21.3478 59.9008 21.4322 59.8179 21.4322H57.7852C57.6608 21.4322 57.5778 21.3056 57.5778 21.2213V12.4459H53.5955Z" fill="#E42313"/>
<path d="M76.8257 15.8632C76.8257 19.3649 74.0879 21.601 70.7693 21.601C67.4921 21.601 64.7543 19.3228 64.7543 15.8632C64.7543 12.4459 67.4921 10.1255 70.7693 10.1255C74.0879 10.1255 76.8257 12.4459 76.8257 15.8632ZM67.2433 15.8632C67.2433 18.0993 68.8611 19.4915 70.8107 19.4915C72.7604 19.4915 74.3782 18.0993 74.3782 15.8632C74.3782 13.6272 72.7604 12.235 70.8107 12.235C68.8611 12.235 67.2433 13.6272 67.2433 15.8632Z" fill="#E42313"/>
<path d="M90.6394 21.4324H89.146L86.6156 15.3571C86.4912 15.0618 86.3252 14.5977 86.3252 14.5977H86.2837C86.2837 14.5977 86.1593 15.0618 86.0348 15.3571L83.5044 21.4324H82.011L77.1576 10.6319C77.1161 10.5476 77.0746 10.4632 77.0746 10.421C77.0746 10.3788 77.1161 10.2944 77.2405 10.2944H79.4391C79.6465 10.2944 79.688 10.2944 79.8125 10.5476L82.2599 15.8634C82.5503 16.4541 82.8407 17.4666 82.8407 17.4666H82.9237C82.9237 17.4666 83.0896 16.7494 83.38 16.1587L85.786 10.2944H86.9475L89.3535 16.1587C89.6024 16.7916 89.8098 17.4666 89.8098 17.4666H89.8927C89.8927 17.4666 90.1831 16.4119 90.4735 15.8634L92.921 10.5476C93.0454 10.3366 93.0869 10.2944 93.2943 10.2944H95.4929C95.6173 10.2944 95.6588 10.3366 95.6588 10.421C95.6588 10.5054 95.6173 10.5898 95.5758 10.6319L90.6394 21.4324Z" fill="#E42313"/>
<path d="M107.896 15.8632C107.896 19.3649 105.158 21.601 101.881 21.601C98.6041 21.601 95.8247 19.3228 95.8247 15.8632C95.8247 12.4459 98.5626 10.1255 101.881 10.1255C105.117 10.1255 107.896 12.4459 107.896 15.8632ZM98.3137 15.8632C98.3137 18.0993 99.9315 19.4915 101.881 19.4915C103.831 19.4915 105.449 18.0993 105.449 15.8632C105.449 13.6272 103.831 12.235 101.881 12.235C99.9315 12.235 98.3137 13.6272 98.3137 15.8632Z" fill="#E42313"/>
<path d="M112.335 19.3227H117.728C117.852 19.3227 117.976 19.4915 117.976 19.5759V21.1791C117.976 21.3056 117.81 21.4322 117.728 21.4322H110.053C109.929 21.4322 109.846 21.3056 109.846 21.2213V10.5474C109.846 10.4208 109.97 10.3364 110.053 10.3364H112.086C112.21 10.3364 112.293 10.463 112.293 10.5474V19.3227H112.335Z" fill="#E42313"/>
<path d="M116.981 12.4459C116.856 12.4459 116.732 12.2771 116.732 12.1928V10.5896C116.732 10.463 116.898 10.3364 116.981 10.3364H127.351C127.476 10.3364 127.6 10.5052 127.6 10.5896V12.1928C127.6 12.3193 127.434 12.4459 127.351 12.4459H123.411V21.2213C123.411 21.3478 123.286 21.4322 123.203 21.4322H121.129C121.005 21.4322 120.922 21.3056 120.922 21.2213V12.4459H116.981Z" fill="#E42313"/>
<path d="M135.067 19.5335H129.757L128.969 21.2211C128.845 21.432 128.803 21.4742 128.596 21.4742H126.439C126.314 21.4742 126.273 21.3898 126.273 21.3476C126.273 21.3054 126.314 21.1789 126.356 21.1367L131.5 10.3784H133.408L138.51 21.0945C138.552 21.1789 138.593 21.2633 138.593 21.3054C138.593 21.3476 138.552 21.432 138.427 21.432H136.27C136.063 21.432 135.98 21.432 135.897 21.1789L135.067 19.5335ZM130.629 17.5506H134.238L133.242 15.4833C132.869 14.6817 132.495 13.5004 132.495 13.5004H132.371C132.371 13.5004 131.998 14.6817 131.624 15.4833L130.629 17.5506Z" fill="#E42313"/>
<path d="M142.41 21.2213C142.41 21.3478 142.285 21.4322 142.202 21.4322H140.17C140.045 21.4322 139.962 21.3056 139.962 21.2213V10.5474C139.962 10.4208 140.087 10.3364 140.17 10.3364H142.202C142.327 10.3364 142.41 10.463 142.41 10.5474V21.2213Z" fill="#E42313"/>
<path d="M150.789 15.315L155.767 21.1371C155.85 21.2215 155.85 21.2636 155.85 21.3058C155.85 21.348 155.809 21.4324 155.684 21.4324H153.071C152.905 21.4324 152.78 21.3902 152.656 21.2636L149.047 17.0447L147.429 18.6057V21.2215C147.429 21.348 147.305 21.4324 147.222 21.4324H145.189C145.065 21.4324 144.982 21.3058 144.982 21.2215V10.5476C144.982 10.421 145.106 10.3366 145.189 10.3366H147.222C147.346 10.3366 147.429 10.4632 147.429 10.5476V15.4415H147.471C147.471 15.4415 147.761 15.104 148.176 14.7243L152.407 10.5054C152.573 10.3366 152.697 10.2944 152.863 10.2944H155.435C155.56 10.2944 155.601 10.3788 155.601 10.421C155.601 10.4632 155.601 10.5054 155.477 10.6319L150.789 15.315Z" fill="#E42313"/>
<path d="M165.474 19.5335H160.164L159.376 21.2211C159.252 21.432 159.21 21.4742 159.003 21.4742H156.846C156.721 21.4742 156.68 21.3898 156.68 21.3476C156.68 21.3054 156.721 21.1789 156.763 21.1367L161.906 10.3784H163.815L168.917 21.0945C168.959 21.1789 169 21.2633 169 21.3054C169 21.3476 168.959 21.432 168.834 21.432H166.677C166.47 21.432 166.387 21.432 166.304 21.1789L165.474 19.5335ZM161.035 17.5506H164.644L163.649 15.4833C163.275 14.6817 162.902 13.5004 162.902 13.5004H162.778C162.778 13.5004 162.404 14.6817 162.031 15.4833L161.035 17.5506Z" fill="#E42313"/>
<path d="M33.0616 36.7049C33.0616 36.7893 32.9786 36.8737 32.8957 36.8737H31.3193C31.2364 36.8737 31.1534 36.7893 31.1534 36.7049V28.4358C31.1534 28.3515 31.2364 28.2671 31.3193 28.2671H32.8957C32.9786 28.2671 33.0616 28.3515 33.0616 28.4358V36.7049Z" fill="#273583"/>
<path d="M42.3122 36.8737L37.9566 32.4016C37.5003 31.9376 37.0025 31.3047 37.0025 31.3047H36.961V36.7049C36.961 36.7893 36.878 36.8737 36.795 36.8737H35.2187C35.1357 36.8737 35.0528 36.7893 35.0528 36.7049V28.4358C35.0528 28.3515 35.1357 28.2671 35.2187 28.2671H36.5047L40.7774 32.697C41.2337 33.161 41.773 33.8783 41.773 33.8783H41.8144V28.4358C41.8144 28.3515 41.8974 28.2671 41.9804 28.2671H43.5567C43.6397 28.2671 43.7226 28.3515 43.7226 28.4358V36.7049C43.7226 36.7893 43.6397 36.8737 43.5567 36.8737H42.3122Z" fill="#273583"/>
<path d="M47.0827 33.9625C47.2487 33.9625 47.3316 34.0468 47.3731 34.1734C47.4975 34.8906 48.1198 35.3547 49.4472 35.3547C50.8162 35.3547 51.3969 34.8484 51.3969 34.2156C51.3969 33.7937 51.1065 33.4562 50.2769 33.3718L48.0783 33.203C46.336 33.0765 45.4234 32.2749 45.4234 30.967C45.4234 29.4904 46.7094 28.0981 49.1983 28.0981C51.7703 28.0981 52.8903 29.3216 52.8903 30.7139C52.8903 30.8404 52.8073 30.967 52.6414 30.967H51.231C51.1065 30.967 51.0236 30.9248 50.9821 30.7561C50.8991 30.2498 50.4013 29.7857 49.1568 29.7857C47.9539 29.7857 47.2901 30.292 47.2901 30.9248C47.2901 31.3045 47.539 31.5999 48.3272 31.642L50.5258 31.8108C52.5169 31.9796 53.2636 32.9921 53.2636 34.1734C53.2636 35.5235 52.1021 37.0423 49.3643 37.0423C46.7923 37.0423 45.3405 35.7766 45.3405 34.3843V34.2578C45.3405 34.1312 45.4649 34.0046 45.5893 34.0046H47.0827V33.9625Z" fill="#273583"/>
<path d="M54.1348 29.87C54.0518 29.87 53.9273 29.7434 53.9273 29.659V28.4356C53.9273 28.3512 54.0518 28.2246 54.1348 28.2246H62.1409C62.2239 28.2246 62.3483 28.3512 62.3483 28.4356V29.659C62.3483 29.7434 62.2239 29.87 62.1409 29.87H59.1127V36.7047C59.1127 36.789 59.0297 36.8734 58.9467 36.8734H57.3704C57.2874 36.8734 57.2045 36.789 57.2045 36.7047V29.87H54.1348Z" fill="#273583"/>
<path d="M68.1973 35.3546H64.0906L63.4683 36.6625C63.3854 36.8312 63.3439 36.8312 63.178 36.8312H61.5187C61.4357 36.8312 61.3942 36.789 61.3942 36.7468C61.3942 36.7047 61.4357 36.6203 61.4357 36.5781L65.418 28.2246H66.8699L70.8522 36.5781C70.8937 36.6203 70.8937 36.7047 70.8937 36.7468C70.8937 36.789 70.8522 36.8312 70.7693 36.8312H69.11C68.944 36.8312 68.9026 36.8312 68.8196 36.6625L68.1973 35.3546ZM64.7543 33.8358H67.5336L66.7869 32.2326C66.4966 31.5998 66.2062 30.7138 66.2062 30.7138H66.1232C66.1232 30.7138 65.8328 31.6419 65.5425 32.2326L64.7543 33.8358Z" fill="#273583"/>
<path d="M73.9219 35.2283H78.1117C78.1946 35.2283 78.3191 35.3549 78.3191 35.4393V36.6628C78.3191 36.7471 78.1946 36.8737 78.1117 36.8737H72.1797C72.0967 36.8737 72.0137 36.7893 72.0137 36.7049V28.4358C72.0137 28.3515 72.0967 28.2671 72.1797 28.2671H73.756C73.839 28.2671 73.9219 28.3515 73.9219 28.4358V35.2283Z" fill="#273583"/>
<path d="M85.8274 35.3546H81.7207L81.0984 36.6625C81.0155 36.8312 80.974 36.8312 80.8081 36.8312H79.1487C79.0658 36.8312 79.0243 36.789 79.0243 36.7468C79.0243 36.7047 79.0658 36.6203 79.0658 36.5781L83.0481 28.2246H84.5L88.4823 36.5781C88.5238 36.6203 88.5238 36.7047 88.5238 36.7468C88.5238 36.789 88.4823 36.8312 88.3994 36.8312H86.7401C86.5741 36.8312 86.5326 36.8312 86.4497 36.6625L85.8274 35.3546ZM82.3844 33.8358H85.1637L84.417 32.2326C84.1267 31.5998 83.8363 30.7138 83.8363 30.7138H83.7533C83.7533 30.7138 83.4629 31.6419 83.1726 32.2326L82.3844 33.8358Z" fill="#273583"/>
<path d="M87.7771 29.87C87.6942 29.87 87.5697 29.7434 87.5697 29.659V28.4356C87.5697 28.3512 87.6942 28.2246 87.7771 28.2246H95.7833C95.8662 28.2246 95.9907 28.3512 95.9907 28.4356V29.659C95.9907 29.7434 95.8662 29.87 95.7833 29.87H92.755V36.7047C92.755 36.789 92.6721 36.8734 92.5891 36.8734H91.0128C90.9298 36.8734 90.8468 36.789 90.8468 36.7047V29.87H87.7771Z" fill="#273583"/>
<path d="M105.781 32.57C105.781 35.2701 103.665 36.9999 101.093 36.9999C98.5211 36.9999 96.4055 35.2279 96.4055 32.57C96.4055 29.9121 98.5211 28.1401 101.093 28.1401C103.665 28.1401 105.781 29.9121 105.781 32.57ZM98.3967 32.57C98.3967 34.2998 99.6411 35.3967 101.135 35.3967C102.628 35.3967 103.872 34.2998 103.872 32.57C103.872 30.8403 102.628 29.7433 101.135 29.7433C99.6411 29.7433 98.3967 30.7981 98.3967 32.57Z" fill="#273583"/>
<path d="M107.357 28.4358C107.357 28.3515 107.44 28.2671 107.523 28.2671H111.464C113.538 28.2671 114.99 29.4062 114.99 31.2625C114.99 32.5704 114.202 33.4564 113.081 33.8361V33.8783C113.081 33.8783 113.33 34.1314 113.538 34.4689L114.948 36.5784C115.031 36.6628 115.031 36.7471 115.031 36.7471C115.031 36.7893 114.99 36.8315 114.907 36.8315H113.04C112.957 36.8315 112.874 36.7893 112.833 36.7049L111.09 34.1314H109.265V36.6628C109.265 36.7471 109.182 36.8315 109.099 36.8315H107.523C107.44 36.8315 107.357 36.7471 107.357 36.6628V28.4358ZM109.265 29.8703V32.6126H111.298C112.376 32.6126 113.04 32.1063 113.04 31.2625C113.04 30.4187 112.376 29.8703 111.298 29.8703H109.265Z" fill="#273583"/>
<path d="M115.985 36.8312L120.59 30.756C120.922 30.2919 121.295 29.9122 121.295 29.9122V29.87H116.442C116.359 29.87 116.234 29.7434 116.234 29.659V28.4356C116.234 28.3512 116.359 28.2246 116.442 28.2246H124.78V28.2668L120.009 34.5108C119.719 34.8905 119.387 35.1858 119.387 35.1858V35.228H124.448C124.531 35.228 124.655 35.3546 124.655 35.439V36.6625C124.655 36.7468 124.531 36.8734 124.448 36.8734L115.985 36.8312Z" fill="#273583"/>
<path d="M125.651 28.4777C125.609 28.3934 125.568 28.3512 125.568 28.309C125.568 28.2668 125.609 28.2246 125.651 28.2246H127.434C127.6 28.2246 127.683 28.2668 127.766 28.3934L129.218 30.4606C129.509 30.8825 129.923 31.6419 129.923 31.6419H129.965C129.965 31.6419 130.338 30.9247 130.67 30.4606L132.122 28.3934C132.205 28.2668 132.288 28.2246 132.454 28.2246H134.238C134.279 28.2246 134.321 28.2668 134.321 28.309C134.321 28.3512 134.321 28.3934 134.238 28.4777L130.878 33.4139V36.7047C130.878 36.789 130.795 36.8734 130.712 36.8734H129.135C129.052 36.8734 128.969 36.789 128.969 36.7047V33.4139L125.651 28.4777Z" fill="#273583"/>
<path d="M27.6274 0H21.7369L18.0864 6.20182H23.9769L27.6274 0Z" fill="#E42313"/>
<path d="M10.5366 6.20182H16.3856L20.0361 0H14.187L10.5366 6.20182Z" fill="#E42313"/>
<path d="M6.01497 13.9222H11.864L15.5145 7.67822H9.66544L6.01497 13.9222Z" fill="#E42313"/>
<path d="M18.5842 15.3989H12.6937L9.0432 21.6007H14.9337L18.5842 15.3989Z" fill="#E42313"/>
<path d="M1.49338 21.6007H7.34242L10.9929 15.3989H5.14384L1.49338 21.6007Z" fill="#E42313"/>
<path d="M4.52161 29.3216H10.4121L14.0626 23.0776H8.17207L4.52161 29.3216Z" fill="#273583"/>
<path d="M23.1058 7.67822H17.2153L13.5648 13.9222H19.4553L23.1058 7.67822Z" fill="#E42313"/>
<path d="M5.89053 37.0002L9.54099 30.7983H3.65047L0 37.0002H5.89053Z" fill="#273583"/>
<path d="M26.134 15.3989H20.285L16.6345 21.6007H22.4836L26.134 15.3989Z" fill="#273583"/>
<path d="M17.0908 30.7983H11.2418L7.59131 37.0002H13.4404L17.0908 30.7983Z" fill="#273583"/>
<path d="M21.6124 23.0776H15.7634L12.1129 29.3216H17.962L21.6124 23.0776Z" fill="#273583"/>
</g>
<defs>
<clipPath id="clip0">
<rect width="169" height="37" fill="white"/>
</clipPath>
</defs>
</svg>
