<svg width="300" height="62" viewBox="0 0 300 62" fill="none" xmlns="http://www.w3.org/2000/svg">
<path d="M161.041 9.54614H164.361V16.8511C164.776 16.9341 165.191 16.9341 165.606 16.9341C168.263 16.9341 170.006 15.2739 170.006 12.2025C170.006 11.3724 170.006 10.2932 169.923 9.54614H173.243C173.326 10.3762 173.326 11.3724 173.326 12.1195C173.326 15.5229 171.915 18.0962 169.176 19.1754L174.24 26.9784H170.172L165.689 19.9225C165.523 19.9225 165.44 19.9225 165.274 19.9225C164.942 19.9225 164.693 19.9225 164.361 19.8394V26.9784H161.041V9.54614Z" fill="white"/>
<path d="M182.623 14.9417V17.764H180.05V26.8952H176.812V14.9417H182.623Z" fill="white"/>
<path d="M190.592 14.5269C192.418 14.5269 193.83 15.357 194.494 16.4361H194.577C194.577 16.2701 194.494 16.021 194.494 15.357V14.9419H197.482V26.9784H194.494V26.3974C194.494 25.8993 194.494 25.5673 194.577 25.3182H194.494C193.83 26.5634 192.335 27.3935 190.509 27.3935C187.106 27.3935 184.698 24.7371 184.698 21.0017C184.698 17.2662 187.106 14.5269 190.592 14.5269ZM194.411 20.9187C194.411 18.8434 192.999 17.4322 191.173 17.4322C189.264 17.4322 187.936 18.8434 187.936 20.9187C187.936 22.9939 189.264 24.4881 191.173 24.4881C192.999 24.4051 194.411 22.9939 194.411 20.9187Z" fill="white"/>
<path d="M199.059 32.291V29.4687H201.467V14.9418H204.704V32.291H199.059ZM201.135 11.4554C201.135 10.3762 201.965 9.54614 203.044 9.54614C204.123 9.54614 204.953 10.3762 204.953 11.4554C204.953 12.5345 204.123 13.3646 203.044 13.3646C201.965 13.3646 201.135 12.5345 201.135 11.4554Z" fill="white"/>
<path d="M207.776 20.9187C207.776 17.1832 210.432 14.5269 214.167 14.5269C217.903 14.5269 220.642 17.1832 220.642 20.9187C220.642 24.5711 217.903 27.3105 214.167 27.3105C210.432 27.3105 207.776 24.6541 207.776 20.9187ZM217.322 20.9187C217.322 18.8434 216.077 17.4322 214.167 17.4322C212.258 17.4322 211.013 18.8434 211.013 20.9187C211.013 22.9939 212.341 24.4881 214.167 24.4881C216.077 24.4051 217.322 22.9939 217.322 20.9187Z" fill="white"/>
<path d="M237.659 26.9782H233.177L231.433 17.764H231.35L229.524 26.9782H225.125L222.551 14.9417H225.706L227.283 24.1558H227.366L229.026 14.9417H233.841L235.501 24.1558H235.584L237.161 14.9417H240.316L237.659 26.9782Z" fill="white"/>
<path d="M244.217 29.4685H249.861V27.0612C249.861 26.5631 249.861 26.2311 249.944 25.982H249.861C249.612 26.3971 248.865 26.9782 247.288 26.9782C244.798 26.9782 242.972 24.9859 242.972 22.2466V14.9417H246.209V22.3296C246.209 23.4087 247.039 24.1558 248.118 24.1558C249.197 24.1558 249.944 23.4087 249.944 22.3296V14.9417H253.182V32.2908H244.3V29.4685H244.217Z" fill="white"/>
<path d="M161.04 33.3701H164.361V50.8023H161.04V33.3701Z" fill="white"/>
<path d="M178.556 38.7656V50.8021H175.318V41.505H171.583V50.7191H168.345V38.7656H178.556Z" fill="white"/>
<path d="M186.358 43.1654L187.853 43.9125C189.181 44.5766 190.426 45.4897 190.426 47.399C190.426 49.5572 188.766 51.1344 185.943 51.1344C183.287 51.1344 181.959 49.6403 181.544 48.0631L183.951 46.7349C184.2 47.482 184.781 48.4781 186.026 48.4781C186.774 48.4781 187.272 48.0631 187.272 47.399C187.272 46.9009 186.94 46.5689 185.943 46.1538L184.698 45.4897C183.37 44.8256 182.125 44.0786 182.125 41.9203C182.125 40.011 183.868 38.3508 186.192 38.3508C188.6 38.3508 189.845 39.596 190.592 41.0072L188.351 42.3353C187.936 41.5052 187.272 40.9242 186.275 40.9242C185.611 40.9242 185.113 41.2562 185.113 41.8373C185.03 42.4183 185.362 42.6674 186.358 43.1654Z" fill="white"/>
<path d="M193.996 41.5053H192.833V38.683H193.996V35.6946H197.233V38.766H200.055V41.5053H197.233V47.8971H199.64V50.7195H193.913V41.5053H193.996Z" fill="white"/>
<path d="M204.206 53.2927H209.85V50.8854C209.85 50.3873 209.85 50.0553 209.933 49.8063H209.85C209.601 50.2213 208.854 50.8024 207.277 50.8024C204.787 50.8024 202.961 48.8101 202.961 46.0708V38.6829H206.198V46.0708C206.198 47.1499 207.028 47.897 208.107 47.897C209.186 47.897 209.933 47.1499 209.933 46.0708V38.6829H213.171V56.0321H204.206V53.2927Z" fill="white"/>
<path d="M217.404 41.5053H216.242V38.683H217.404V35.6946H220.642V38.766H223.464V41.5053H220.642V47.8971H223.049V50.7195H217.321V41.5053H217.404Z" fill="white"/>
<path d="M226.37 50.7191V38.7656H229.607V47.9798H233.26V38.7656H236.497V50.8021H226.37V50.7191Z" fill="white"/>
<path d="M240.813 41.5053H239.651V38.683H240.813V35.6946H244.051V38.766H246.873V41.5053H244.051V47.8971H246.458V50.7195H240.73V41.5053H240.813Z" fill="white"/>
<path d="M255.756 42.0862C255.756 36.7736 259.408 33.0381 264.638 33.0381C269.867 33.0381 273.52 36.8566 273.52 42.0862C273.52 47.3159 269.867 51.1344 264.638 51.1344C259.325 51.1344 255.756 47.3159 255.756 42.0862ZM270.116 42.0032C270.116 38.4338 267.958 35.8604 264.638 35.8604C261.317 35.8604 259.159 38.3508 259.159 42.0032C259.159 45.6557 261.317 48.146 264.638 48.146C267.958 48.146 270.116 45.6557 270.116 42.0032Z" fill="white"/>
<path d="M275.18 33.3701H286.967L279.663 47.897H286.635V50.8023H274.765L282.153 36.2755H275.18V33.3701Z" fill="white"/>
<path d="M289.707 33.3701H299.917V36.2755H293.027V40.592H299.419V43.4144H293.027V47.897H300V50.8023H289.707V33.3701Z" fill="white"/>
<path d="M53.8738 30.8799C53.8738 20.1716 45.1577 11.5385 34.5324 11.5385C23.824 11.5385 15.1909 20.2546 15.1909 30.8799C15.1909 41.5053 23.907 50.2214 34.5324 50.2214C45.1577 50.3044 53.8738 41.5883 53.8738 30.8799ZM34.4494 45.5728C26.3973 45.5728 19.7565 39.0149 19.7565 30.8799C19.7565 22.7449 26.3143 16.187 34.4494 16.187C42.5014 16.187 49.1422 22.7449 49.1422 30.8799C49.1422 39.0149 42.5844 45.5728 34.4494 45.5728ZM0 28.5556H9.62922V33.2872H0V28.5556ZM20.1716 50.9685L24.2391 53.2927L19.4245 61.6768L15.3569 59.3525L20.1716 50.9685ZM48.8102 10.7084L44.7427 8.38406L49.6403 0L53.7078 2.32429L48.8102 10.7084ZM48.8102 50.9685L53.6248 59.3525L49.5573 61.6768L44.7427 53.2927L48.8102 50.9685ZM20.0885 10.7084L15.2739 2.32429L19.3414 0L24.1561 8.38406L20.0885 10.7084Z" fill="white"/>
<path d="M102.518 11.4556H62.8391V16.1872H74.4606L59.7677 50.2215H99.4467V45.4899H87.8253L102.518 11.4556ZM66.9896 45.5729L79.6072 16.1872H95.3792L82.6786 45.5729H66.9896Z" fill="white"/>
<path d="M137.465 19.3417C133.979 19.3417 130.658 18.5116 127.587 17.6815C122.025 16.2703 117.211 15.0251 111.898 18.0135L109.574 13.946C116.547 10.0445 123.021 11.7047 128.749 13.1159C134.311 14.5271 139.125 15.7722 144.438 12.7838L146.762 16.8514C143.608 18.6776 140.454 19.3417 137.465 19.3417ZM146.845 32.3743L144.521 28.3068C139.208 31.2952 134.394 30.05 128.832 28.6389C123.104 27.1447 116.63 25.4845 109.657 29.469L111.981 33.5365C117.294 30.5481 122.108 31.7933 127.67 33.2044C130.741 34.0345 134.062 34.8646 137.548 34.8646C140.454 34.7816 143.608 34.1175 146.845 32.3743ZM146.845 47.8143L144.521 43.7468C139.208 46.7351 134.394 45.49 128.832 44.0788C123.104 42.5846 116.63 40.9244 109.657 44.9089L111.981 48.9764C117.294 45.9881 122.108 47.2332 127.67 48.6444C130.741 49.4745 134.062 50.3046 137.548 50.3046C140.454 50.2216 143.608 49.6405 146.845 47.8143Z" fill="white"/>
</svg>
