<svg width="230" height="889" viewBox="0 0 230 889" fill="none" xmlns="http://www.w3.org/2000/svg">
<g opacity="0.2">
<path d="M177.473 310.458C239.182 310.458 288.931 260.23 288.931 198.999C288.931 137.29 238.703 87.5405 177.473 87.5405C116.242 87.5405 66.0141 137.29 66.0141 198.521C66.0141 260.23 116.242 310.458 177.473 310.458ZM93.2808 198.521C93.2808 152.119 131.072 113.85 177.951 113.85C224.831 113.85 262.621 151.641 262.621 198.521C262.621 244.922 224.831 283.191 177.951 283.191C131.072 283.191 93.2808 245.4 93.2808 198.521ZM191.345 0V55.4901H164.079V0H191.345ZM61.7088 116.242L48.3147 139.682L0 111.937L13.3942 88.4972L61.7088 116.242ZM293.715 281.278L307.109 257.838L355.424 285.583L342.03 309.023L293.715 281.278ZM61.7088 281.278L13.3942 309.023L0 285.583L48.3147 257.838L61.7088 281.278ZM293.715 115.764L342.03 88.0188L355.424 111.459L307.109 139.204L293.715 115.764Z" fill="#59E190"/>
<path d="M300.891 375.993H72.2331V403.26H139.204L54.5337 599.389H283.191V572.122H216.22L300.891 375.993ZM96.1513 572.122L168.862 402.781H259.751L187.04 572.122H96.1513Z" fill="#59E190"/>
<path d="M231.049 709.891C210.958 709.891 191.824 705.107 174.124 700.324C142.074 692.191 114.329 685.016 83.7134 702.237L70.3193 678.797C110.502 656.314 147.814 665.881 180.821 674.014C212.871 682.146 240.617 689.321 271.232 672.1L284.626 695.54C266.448 706.064 248.27 709.891 231.049 709.891ZM285.104 784.515L271.71 761.076C241.095 778.297 213.35 771.121 181.3 762.989C148.292 754.379 110.98 744.811 70.7976 767.773L84.1918 791.213C114.807 773.991 142.552 781.167 174.602 789.299C192.302 794.083 211.436 798.866 231.528 798.866C248.27 798.866 266.448 795.039 285.104 784.515ZM285.104 873.969L271.71 850.53C241.095 867.751 213.35 860.575 181.3 852.443C148.292 843.832 110.98 834.265 70.7976 857.227L84.1918 880.666C114.807 863.445 142.552 870.621 174.602 878.753C192.302 883.537 211.436 888.32 231.528 888.32C248.27 887.842 266.448 884.015 285.104 873.969Z" fill="#59E190"/>
</g>
</svg>
