<svg width="137" height="342" viewBox="0 0 137 342" fill="none" xmlns="http://www.w3.org/2000/svg">
<path d="M68.3145 119.504C92.0681 119.504 111.218 100.17 111.218 76.6006C111.218 52.8471 91.8839 33.6969 68.3145 33.6969C44.7451 33.6969 25.4108 52.8471 25.4108 76.4165C25.4108 100.17 44.7451 119.504 68.3145 119.504ZM35.9065 76.4165C35.9065 58.5553 50.4533 43.8244 68.4986 43.8244C86.544 43.8244 101.091 58.3712 101.091 76.4165C101.091 94.2777 86.544 109.009 68.4986 109.009C50.4533 109.009 35.9065 94.4618 35.9065 76.4165ZM73.6545 0V21.3598H63.1587V0H73.6545ZM23.7536 44.7451L18.5978 53.7677L0 43.0879L5.15581 34.0652L23.7536 44.7451ZM113.06 108.272L118.215 99.2494L136.813 109.929L131.657 118.952L113.06 108.272ZM23.7536 108.272L5.15581 118.952L0 109.929L18.5978 99.2494L23.7536 108.272ZM113.06 44.5609L131.657 33.881L136.813 42.9037L118.215 53.5836L113.06 44.5609Z" fill="white"/>
<path d="M115.822 144.731H27.8049V155.227H53.5839L20.9918 230.723H109.009V220.227H83.2298L115.822 144.731ZM37.0117 220.227L65.0004 155.043H99.9862L71.9975 220.227H37.0117Z" fill="white"/>
<path d="M88.938 273.258C81.2043 273.258 73.8388 271.417 67.0258 269.575C54.6887 266.445 44.0088 263.683 32.224 270.312L27.0682 261.289C42.5357 252.635 56.8983 256.317 69.6037 259.448C81.9408 262.578 92.6207 265.34 104.405 258.711L109.561 267.734C102.564 271.785 95.5669 273.258 88.938 273.258ZM109.745 301.983L104.59 292.96C92.8048 299.589 82.1249 296.827 69.7878 293.697C57.0824 290.383 42.7198 286.7 27.2524 295.538L32.4082 304.561C44.1929 297.932 54.8728 300.694 67.2099 303.825C74.0229 305.666 81.3884 307.507 89.1221 307.507C95.5669 307.507 102.564 306.034 109.745 301.983ZM109.745 336.417L104.59 327.394C92.8048 334.023 82.1249 331.261 69.7878 328.13C57.0824 324.816 42.7198 321.133 27.2524 329.972L32.4082 338.995C44.1929 332.366 54.8728 335.128 67.2099 338.258C74.0229 340.099 81.3884 341.941 89.1221 341.941C95.5669 341.757 102.564 340.283 109.745 336.417Z" fill="white"/>
</svg>
