<svg width="225" height="295" viewBox="0 0 225 295" fill="none" xmlns="http://www.w3.org/2000/svg">
<g opacity="0.8">
<path d="M76.382 48.9566L47.2908 0.5H0.883354L29.9745 48.9566H76.382Z" stroke="white"/>
<path d="M62.2907 0.5L91.3818 48.9566H137.794L109.034 0.5H62.2907Z" stroke="white"/>
<path d="M99.0676 61.7319L128.159 110.189H174.566L145.475 61.7319H99.0676Z" stroke="white"/>
<path d="M149.936 171.421L120.845 122.964H74.4371L103.528 171.421H149.936Z" stroke="white"/>
<path d="M135.844 122.964L164.936 171.421H211.343L182.252 122.964H135.844Z" stroke="white"/>
<path d="M111.209 184.195L139.97 232.652H186.713L157.622 184.195H111.209Z" stroke="white"/>
<path d="M113.159 110.189L84.0676 61.7319H37.6602L66.7513 110.189H113.159Z" stroke="white"/>
<path d="M223.49 294.223L194.398 245.766H147.654L176.745 294.223H223.49Z" stroke="white"/>
<path d="M11.809 122.464H59.7202L89.4116 171.921H41.5005L11.809 122.464Z" fill="#E42313"/>
<path d="M161.745 294.223L132.654 245.766H86.2463L115.337 294.223H161.745Z" stroke="white"/>
<path d="M124.973 232.652L96.2125 184.195H49.4693L78.5604 232.652H124.973Z" stroke="white"/>
</g>
</svg>
