<svg width="375" height="681" viewBox="0 0 375 681" fill="none" xmlns="http://www.w3.org/2000/svg">
<g opacity="0.2">
<path d="M296.157 113.631L364.076 0.5H472.696L404.777 113.631H296.157Z" stroke="#273583"/>
<path d="M330.986 0.5L263.068 113.631H154.443L221.589 0.5H330.986Z" stroke="#273583"/>
<path d="M246.116 141.805L178.197 254.936H69.5778L137.496 141.805H246.116Z" stroke="#273583"/>
<path d="M126.418 396.241L194.336 283.11H302.956L235.037 396.241H126.418Z" stroke="#273583"/>
<path d="M161.246 283.11L93.3274 396.241H-15.2924L52.6263 283.11H161.246Z" stroke="#273583"/>
<path d="M218.091 424.414L150.944 537.545H41.5471L109.466 424.414H218.091Z" stroke="#273583"/>
<path d="M211.288 254.936L279.206 141.805H387.826L319.907 254.936H211.288Z" stroke="#273583"/>
<path d="M-43.3228 679.632L24.5958 566.5H133.994L66.0755 679.632H-43.3228Z" stroke="#273583"/>
<path d="M446.327 282.61H335.763L267.244 396.741H377.809L446.327 282.61Z" fill="#E42313"/>
<path d="M99.1656 679.632L167.084 566.5H275.704L207.785 679.632H99.1656Z" stroke="#273583"/>
<path d="M184.031 537.545L251.177 424.414H360.574L292.655 537.545H184.031Z" stroke="#273583"/>
</g>
</svg>
