<svg width="301" height="360" viewBox="0 0 301 360" fill="none" xmlns="http://www.w3.org/2000/svg">
<g opacity="0.2">
<path d="M160.153 281.003C215.839 281.003 260.734 235.677 260.734 180.422C260.734 124.735 215.407 79.8408 160.153 79.8408C104.898 79.8408 59.5716 124.735 59.5716 179.99C59.5716 235.677 104.898 281.003 160.153 281.003ZM84.1772 179.99C84.1772 138.117 118.28 103.583 160.584 103.583C202.889 103.583 236.991 137.686 236.991 179.99C236.991 221.863 202.889 256.397 160.584 256.397C118.28 256.397 84.1772 222.295 84.1772 179.99ZM172.671 0.84375V50.9184H148.066V0.84375H172.671ZM172.671 309.925V360H148.066V309.925H172.671ZM55.6865 105.742L43.5995 126.894L0 101.856L12.087 80.7042L55.6865 105.742ZM265.05 254.67L277.137 233.518L320.737 258.556L308.65 279.708L265.05 254.67ZM55.6865 254.67L12.087 279.708L0 258.556L43.5995 233.518L55.6865 254.67ZM265.05 105.31L308.65 80.2725L320.737 101.425L277.137 126.462L265.05 105.31Z" fill="#FF8455"/>
</g>
</svg>
